<?xml version="1.0" encoding="UTF-8"?>
<svg id="Calque_1" data-name="Calque 1" xmlns="http://www.w3.org/2000/svg" viewBox="0 0 326.85 233.61">
  <defs>
    <style>
      .cls-1 {
        fill: #567385;
      }

      .cls-1, .cls-2, .cls-3, .cls-4, .cls-5, .cls-6, .cls-7, .cls-8, .cls-9, .cls-10, .cls-11, .cls-12, .cls-13, .cls-14, .cls-15, .cls-16 {
        stroke-width: 0px;
      }

      .cls-2 {
        fill: #5b788c;
      }

      .cls-3 {
        fill: #645f55;
      }

      .cls-4 {
        fill: #87a1af;
      }

      .cls-5 {
        fill: #71716f;
      }

      .cls-6 {
        fill: #3b3d37;
      }

      .cls-7 {
        fill: #3a362d;
      }

      .cls-8 {
        fill: #cad4e5;
      }

      .cls-9 {
        fill: #a9bcce;
      }

      .cls-10 {
        fill: #c0dceb;
      }

      .cls-11 {
        fill: #b2b2b3;
      }

      .cls-12 {
        fill: #b1c9e5;
      }

      .cls-13 {
        fill: #90acbf;
      }

      .cls-14 {
        fill: #fcf5d0;
      }

      .cls-15 {
        fill: #fbce5c;
      }

      .cls-16 {
        fill: #fbfbfb;
      }
    </style>
  </defs>
  <path class="cls-7" d="M282.79,232.83c-1.09,0-2.17,0-3.26,0-1.23-.65-2.45-.65-3.68,0-7.98.02-15.97.06-23.95.06-4.4,0-8.79-.06-13.19-.09-5.98-.65-11.97-.65-17.95,0-1.09,0-2.18,0-3.27,0-3.26-.65-6.52-.65-9.79,0-12.52.16-25.03.19-37.55.02-1.09-.63-2.18-.63-3.27,0-5.68.17-11.36.2-17.04.02-1.28,0-2.56,0-3.84,0-8.68.04-17.37.1-26.05.1-7.46,0-14.93-.07-22.39-.11-.72,0-1.43,0-2.15,0-1.73.17-3.45.17-5.18,0-.32,0-.64,0-.95,0-9.43.03-18.87.09-28.3.1-3.87,0-7.73-.07-11.6-.11-.83,0-1.67,0-2.5,0-4.48,0-8.96,0-13.43,0-.42,0-.84,0-1.25,0-.99.19-1.92.29-1.58-1.23,1-1.21,2.33-1.25,3.78-1.25,93.49.02,186.98.02,280.47.02.88,0,1.81.17,2.64-.05,1.2-.31,2.8-.32,2.83-2.21.23-.21.46-.42.68-.62.8.04.98-.5,1.05-1.15,1.2-.62.71-1.1-.15-1.48-.84-.37-1.74-.2-2.62-.2-95.65,0-191.31,0-286.96,0q-2.76,0-2.17-2.5c.67-.05,1.35-.1,2.02-.15.54.05,1.07.15,1.61.15,19.63-.03,39.27-.07,58.9-.12.53,0,1.07-.12,1.6-.19,4.15.02,8.3,0,12.44.07,1.21.02,1.76-.33,2.11-1.56,1.13-4.06,2.51-8.05,3.62-12.11.48-1.75,1.31-2.3,3.12-2.29,15.23.07,30.47,0,45.7.03,16.25.03,32.51.1,48.76.15,1.59,0,3.26-.1,3.37,2.19-.67,2.26,1.45,3.81,1.53,5.89,0,.22.63.41.97.62.36.32.37.75.38,1.19.38,1.11-.89,2.78,1.14,3.33.14.41.28.83.42,1.24-.49.83.05,1.55.67,1.52,1.87-.11,3.43,1.03,5.33.96,14.83-.55,29.7.96,44.51-.86,1.78-.22,3.27.8,4.94.8,15.42.03,30.85.02,46.27.01.67,0,1.42.11,1.6-.83.56-.17,1.2-.15,1.59-.7-.57-1.07-.52-2.73-2.41-2.55l-.07-.13c-.08-.32-.28-.53-.6-.63h-.11s-.04-.11-.04-.11c-.05-.39-.23-.65-.65-.71-.14-.02-.22-.1-.22-.24-.16-.2-.33-.39-.49-.59-.1-.11-.2-.23-.31-.34-.16-.18-.32-.37-.48-.55l-.29-.3c-.14-.16-.29-.32-.43-.48-.13-.15-.26-.29-.39-.44.11-1.26-.09-2.26-1.73-2.01-.38-.16-.61-.46-.72-.85.14-1.37-.56-1.77-1.79-1.55-.1-.13-.19-.26-.29-.38-.42-1.34-.5-2.97-2.52-2.9-.36-.17-.61-.43-.72-.82-.01-.51-.26-.8-.77-.87-.45-.22-.74-.59-.91-1.05.02-1.81-1.44-3.29-3.72-3.79-.66-.43-1.14-1.02-1.51-1.69-.04-.39-.21-.68-.62-.75-.15-.01-.23-.1-.24-.25-.17-.19-.35-.38-.52-.57-.09-.13-.18-.26-.28-.39.1-.88-.26-1.34-1.18-1.3-.14-.16-.27-.31-.41-.47-.02-.6-.13-1.12-.89-1.12h.02c0-.51-.24-.8-.76-.85l-.08-.14c-.19-.21-.38-.42-.57-.62-.15-.02-.24-.11-.25-.26.08-2.03-1.59-2.35-2.92-3.01-.42-.19-.68-.53-.85-.95.3-1.13-.13-1.63-1.29-1.47l-.24-.31c.04-.59-.2-.94-.83-.95l.02.02c.05-.67.04-1.3-.93-1.12l.17-.07-.17.06c.45-1.41-.14-1.92-1.51-1.78-.39-.16-.63-.46-.75-.87.2-1.87-1.26-2.76-2.33-3.82-.45-.44-.82,0-.93.55-1.34-.33-2.69-.34-4.04-.05-9,.02-18,.05-26.99.07-2.31-.04-4.62-.12-6.92-.12-65.11,0-130.22.02-195.33.04-.61,0-1.21.07-1.82.1-1.76.14-3.7-.85-5.21.85-1.28-.2-1.89.31-1.71,1.64-.57.75-1.1,1.54-1.73,2.24-6.8,7.59-13.59,15.18-20.43,22.74-2.84,3.15-5.78,6.21-8.67,9.31-.09.03-.15.1-.19.19-1.14,1.29-2.28,2.58-3.42,3.87-.55,0-1.03.09-1.11.77-.42.51-.83,1.02-1.25,1.53-.67.81.08.6.47.66,2.42.55,4.9.07,7.33.32.31,1.15,1.27.8,2,.8,4.1.03,8.2.02,12.3.02.01.4.02.81.03,1.21-.8.45-1.68.42-2.56.42-4.31,0-8.62-.01-12.93,0-.72,0-1.5-.2-2.12.4-1.12.03-2.24.03-3.35.12-.56.05-1.41-.41-1.52.69-.49.57-.77,1.26-.02,1.7.31.18.45-.54.59-.9,1.24,1.5,2.97,2.24,4.71,2.97,1.43,1.31,2.97.85,4.51.27.54,0,1.08,0,1.62,0,0,.95,0,1.9,0,2.85-.4.04-.8.08-1.21.12-.22-.14-.48-.42-.67-.38-3.1.66-5.89-.73-8.81-1.25,0,0,.03.02.03.02-.08-1.26-.84-1.71-2-1.71-.13-.14-.27-.29-.4-.43-.11-.14-.22-.27-.33-.41,0,0-.06-.09-.06-.09-.03-.1-.09-.18-.17-.25-.67-.66-1.02-1.47-1.13-2.4.38-1.25.49-2.44-.68-3.37l.02-1.22c1.3-.62,2.18-1.66,3.13-2.73,1.21-1.36,1.88-3.25,3.71-4.04.88-.38.83-1.14.78-1.9.13-.14.26-.28.4-.42,1.79.34,2.78-.81,2.86-3.29.09-.11.18-.22.27-.33.1-.06.16-.14.21-.24,0,0,.09-.09.09-.09.83,0,1.17-.44,1.12-1.23.13-.15.25-.3.38-.45.14-.15.27-.29.41-.44,0,0-.02.02-.02.02.57-.04.82-.36.81-.91-.02-.14.04-.24.18-.28.56,0,1.03-.11,1.1-.78,0,0,.02-.03.02-.03,1.87-.3,3.88-2.57,4.01-4.55,0,0-.01.01-.01.01,1.79.51,1.8-.5,1.51-1.77,0,0,0,0,0,0,.9.17.97-.43.98-1.08,0,0,0,0,0,0,1.64.03,2.01-1.88,3.41-2.27.22-.06-.16-.54-.45-.71.08-.1.17-.19.25-.29,1.15.11,1.36-.59,1.3-1.52.18-.21.37-.41.55-.62.22.03.44.07.66.1.04.02.09.05.13.07-.04-.02-.09-.05-.13-.07.76-.6,1.44-1.24,1.26-2.34.15-.17.29-.33.44-.5.87-.02,1.52-.25,2.3-.86,1.53-1.19,2.2-3.1,3.87-4.12,1.45-.89,2.09-2.26,1.95-3.97l.03-.03c1.14-.44,2.6-.47,2.53-2.31-.09-2.29-.12-4.58-.12-6.87,0-31.06,0-62.13-.01-93.19,0-.86.24-1.77-.29-2.58-.18-2.48-.18-4.95,0-7.43.1-.39.28-.77.28-1.16,0-9.04-.02-18.07-.04-27.11.04-1.48.67-2.73,1.44-3.94.58,0,1.03-.16,1.03-.86v.02c.12-.19.25-.38.37-.57l1.03-1.62s.08-.08.08-.08c1.61-1.35,3.39-2.42,5.31-3.29.47-.12.94-.23,1.41-.35.83.19,1.62-.1,2.42-.25.28,0,.56,0,.84-.01.55.11,1.1.23,1.64.34.09.09.19.14.32.15-.34,1.12.72,2.71-1.12,3.31-.56.01-1.12.03-1.68.04-.33-.11-.63-.09-.88.18-5.38.83-8.55,4.65-8.57,10.39-.07,25.72-.14,51.43-.18,77.15-.01,6.12.06,12.24.09,18.35-.08.41-.16.83-.24,1.24-.88,1.43-.51,2.92-.5,4.49.07,9.65.33,19.31-.11,28.97-.04.86.09,1.48,1.04,1.65h-.02c.78.66,1.59.57,2.42.1.28,0,.57,0,.85,0,.66.52,1.44.33,2.16.33,18.14,0,36.28,0,54.43,0,.73,0,1.51.2,2.16-.35,1.09-.16,2.18-.17,3.27,0,.68,1.09,1.36,1.09,2.05,0,2.05-.19,4.09-.18,6.14,0,.65.55,1.43.34,2.16.35,32.69.27,65.39-.51,98.08.43,4.39.13,8.76.47,13.18.05,5.04-.49,10.13.75,15.21-.04.72-.11,1.49.05,2.22.14,3.11.38,6.21.28,9.33.01,3.78-.32,7.59-.63,11.36-.46,2.64.12,5.24.39,7.88-.04,1.32-.22,2.81-.45,4.03.15,1.94.95,2.55-.05,3.01-1.6l.09-1.08c1.23-.41.76-1.47.76-2.26.03-9.88.02-19.76.02-29.64,0-6.11.01-12.22-.02-18.32,0-.74.38-1.7-.75-2.06,0-2.31,0-4.63,0-6.94.56-.13.78-.52.75-1.05-.3-6.59.43-13.13.81-19.69.09-1.57-.84-2.96-.83-4.58.06-13.46.03-26.92.04-40.38,0-.8-.17-1.65.48-2.32.29-.3.6-.57,1.06-.44.39.12.47.46.48.81.06,2.75.95,5.39.89,8.2-.13,6.04-.27,12.09.09,18.13.18.6.18,1.19,0,1.79-.28,5.39-.23,10.78-.03,16.17,0,.3,0,.6,0,.89-.96.61-.99,1.59-.91,2.53.32,3.89,1.13,7.75.8,11.7-.08.94.06,1.89.1,2.84.22,2.79.24,5.57.02,8.36-.83,5.39-.6,10.86-.79,16.26-.44,12.49-.14,25.01-.15,37.51,0,.68.1,1.42-.14,2.01-.72,1.76.63,3.04.91,4.55.53,1.92,2.49,2.79,3.31,4.5.12.14.24.28.35.42.15.17.29.34.44.51.1.1.19.21.29.31.16.19.31.38.47.57-1.11,1.52.35.89.88,1.05h0c.04.39.21.67.61.75.48.27.81.68,1.01,1.19.04,1.01-.1,2.22,1.57,1.36.16.19.32.37.48.56.05.09.11.16.18.23.09.1.18.21.27.31,0,0,0-.02,0-.02.11.14.22.29.33.43.06.48.22.87.79.9l.12.05s.01.13.01.13c.16.2.32.4.48.59l.32.37c0,.54.24.84.78.9.71.48,1.23,1.14,1.65,1.87,0,.56.22.92.81.98,0,0,0,0,0,0,.01.5.26.78.76.85.14.16.29.32.43.48.11.53.44.72.95.65,0,0-.04-.04-.04-.04.15.16.3.33.44.49.11.13.21.26.32.39.14.15.28.3.42.45.13.14.25.29.38.43,0,1.17.5,1.91,1.75,1.98.94.78,1.73,1.7,2.39,2.73.15.18.31.36.46.54.11.13.22.25.33.38l.41.47c.13.14.25.29.38.43.05,1.37,1.01,1.77,2.12,2,.37.17.63.43.74.83.02.49.27.78.76.85.31.35.62.7.93,1.05-.03.57.21.91.81.94,0,0-.02-.02-.02-.02.13.15.27.3.4.45.13.15.26.29.38.44.12.13.23.25.35.38.16.18.32.37.49.55.03.11.1.19.21.25.36.39.72.79,1.08,1.18,0,0-.04-.08-.04-.08.13.18.25.37.38.55.02.48.25.77.73.85.18.21.36.43.54.64-.01.87.55.98,1.23.94.12.13.24.27.35.4.13.15.26.3.39.45.53.33.92.79,1.21,1.34.05.13.13.22.25.28.21.25.43.51.64.76,0,0-.04-.06-.04-.06.29.38.58.75.86,1.13.08.21.17.42.25.63,0,.41.01.82.02,1.23-1.57.6-1.48,1.45-.36,2.44.03.8-.34,1.44-.81,2.05-.79.12-.81.7-.77,1.31-.31.87-.97,1.45-1.71,1.95-.52,0-1.04,0-1.19.66-.11.06-.23.12-.34.19-.16.1-.32.2-.48.3,0,0-.1.05-.1.05-.58.07-1.28-.12-1.52.68-1.27.58-2.6.81-3.99.61-.61,0-1.22,0-1.83,0-8.12.15-16.25.16-24.37-.02-2.18-.68-4.36-.68-6.54,0ZM197.51,221.81c5.27.12,10.53.25,15.8.34.68.01,1.74.19,1.07-1.15-.19-1.74-.68-3.08-2.86-3.08-31.79,0-63.59-.02-95.38-.02-3.74,0-2.92-.45-4.06,3.08-.32,1.59.97.9,1.48.91,12.2.13,24.4.25,36.61.27,6.64.01,13.28.22,19.91-.34,9.15,0,18.3-.02,27.45-.02ZM138.11,214.46v-.03c7.14,0,14.28-.08,21.42.04,2.61.04,2.06-1.63,2.18-3.13.13-1.62-.34-2.27-2.12-2.27-13.87.07-27.74.07-41.61,0-1.57,0-2.22.61-2.49,2-.1.53-.22,1.07-.43,1.57-.62,1.49-.06,1.85,1.42,1.83,7.21-.06,14.42-.03,21.62-.03ZM188.26,214.45v.02c7.21,0,14.41,0,21.62-.01.56,0,1.3.31,1.66-.38.69-1.32-1.35-4.55-2.87-4.56-13.52-.13-27.05-.27-40.57-.37-3.66-.03-3.19-.43-3.33,3.24-.06,1.6.45,2.12,2.07,2.1,7.14-.07,14.28-.03,21.41-.03Z"/>
  <path class="cls-6" d="M287.43,71.82c-.37-6.04-.22-12.09-.09-18.13.06-2.82-.82-5.45-.89-8.2,0-.35-.09-.69-.48-.81-.46-.14-.77.14-1.06.44-.65.67-.48,1.52-.48,2.32,0,13.46.02,26.92-.04,40.38,0,1.62.92,3.01.83,4.58-.38,6.56-1.12,13.11-.81,19.69.02.53-.2.92-.75,1.05-.03-.61-.1-1.22-.1-1.83,0-22.98-.01-45.97.02-68.95,0-3.8-1.52-6.69-4.69-8.71-1.89-1.2-4.03-1.54-6.24-1.54-7.34,0-14.68,0-22.02.01-.26-.07-.52-.2-.77-.2-7.9-.03-15.8-.05-23.71-.06-.46,0-.96-.05-1.29.4-1.66,1.27-3.36,2.49-4.97,3.82-3.86,3.19-7.67,6.44-11.51,9.65-.46.39-.93.75-1.57.89-1.09.24-1.66-.56-2.18-1.18-.59-.7.13-1.18.62-1.64,3.26-3.05,6.75-5.82,10.21-8.63,1.3-.82,2.46-1.81,3.64-3.08h-111.81c1.46,1.16,2.51,1.99,3.56,2.82.12.09.24.18.36.27,1.19,1.36,2.51,2.54,4.19,3.28,1.81,1.64,3.51,3.42,5.45,4.88,1.78,1.34.58,2.4-.12,3.39-.88,1.24-1.51-.09-2.06-.54-3.45-2.84-6.85-5.74-10.26-8.63-.77-.75-1.52-1.53-2.32-2.25-2.67-2.41-5.54-3.71-9.42-3.51-7.36.39-14.76.14-22.15.12-.78,0-1.86.43-2.12-.91.28-.9-.27-1.99.62-2.76.14-.02.28-.05.42-.07,18.02-.01,36.04-.02,54.06-.04,2.38,0,4.76-.05,7.14,0,1.38.04,1.51-.34.81-1.46-2.59-4.12-5.15-8.26-7.66-12.42-.84-1.39-2.38-3.13-.24-4.39,2.18-1.28,2.61,1.22,3.46,2.39,3.38,4.67,6.13,9.73,8.81,14.82.46.87,1.05,1.09,1.95,1.09,14.21-.03,28.43-.05,42.64-.04,1.54,0,2.23-.98,2.87-2.11,2.22-3.9,4.42-7.81,6.66-11.7.73-1.28,1.45-2.55,2.49-3.65.75-.8,1.04-1.81,2.53-.88,1.47.92,1.23,1.66.57,2.92-2.57,4.93-6.08,9.29-8.62,14.23-.15.29-.27.59-.51,1.12.89.05,1.59.12,2.3.12,25.98,0,51.96.14,77.94-.1,6.95-.06,12.12,2.21,15.65,8.16.62,1.05.98,2.26,1.03,3.49.41,10.67.31,21.35.09,32.02Z"/>
  <path class="cls-6" d="M320.31,228.11c-.04,1.89-1.63,1.9-2.83,2.21-.83.22-1.76.05-2.64.05-93.49,0-186.98,0-280.47-.02-1.45,0-2.78.04-3.78,1.25-.05-.39-.1-.78-.15-1.17,0-.16.02-.32.03-.48.04-.12.08-.25.1-.38,38.55,0,77.11-.02,115.66-.01,55.96.02,111.92.05,167.89.11,2.23,0,4.33-.26,6.2-1.56Z"/>
  <path class="cls-9" d="M72.43,31.05c.26,1.34,1.34.91,2.12.91,7.38.02,14.78.27,22.15-.12,3.88-.21,6.75,1.1,9.42,3.51.8.72,1.55,1.5,2.32,2.25-.71-.05-1.31.3-1.94.55-.71.28-1.75.58-2.08-.04-.48-.91.67-1.08,1.25-1.47.09-.06.1-.22.18-.4-1.03-.64-1.85-1.83-3.38-1.19-.16.07-.59-.13-.68-.31-1.06-2.21-2.36-1.21-3.78-.42-1.07.59-2.28.82-3.34-.2-1.37-1.31-5.09-1.59-6.33-.23-.74.81-1.46.83-2.33.83-5.34.01-10.69-.07-16.02.37-1.13.09-2.51.01-3.22-.8-.7-.79.94-1.32.93-2.24,0-.07.01-.14.02-.2.27-.14.54-.28.81-.42.15.12.33.37.45.35,1.16-.21,2.31-.47,3.47-.72Z"/>
  <path class="cls-6" d="M39.65,74.79c.53.81.29,1.72.29,2.58.01,31.06,0,62.13.01,93.19,0,2.29.03,4.58.12,6.87.08,1.84-1.39,1.86-2.53,2.31,1.91-1.78,1.98-4.04,1.97-6.48-.05-32.02-.02-64.03,0-96.05,0-.81.09-1.62.13-2.43Z"/>
  <path class="cls-6" d="M287.24,176.44c-.28-1.52-1.63-2.79-.91-4.55.24-.59.14-1.34.14-2.01,0-12.51-.29-25.02.15-37.51.19-5.41-.04-10.87.79-16.26.05,1.08.15,2.16.15,3.24-.02,18.09-.06,36.18-.1,54.27,0,.94-.14,1.89-.21,2.83Z"/>
  <path class="cls-6" d="M161.46,12.2c0-1.5,0-2.99,0-4.49,0-1.07.59-1.66,1.61-1.74,1.1-.09,1.69.65,1.73,1.61.1,3.06.13,6.12.1,9.18-.01,1.44-1.24,1.15-2.13,1.25-.98.12-1.34-.4-1.32-1.32.02-1.5,0-2.99,0-4.49,0,0,0,0,.01,0Z"/>
  <path class="cls-9" d="M54.67,31.94c1.85-.6.79-2.19,1.12-3.31,1.11-.01,2.22-.02,3.33-.03.06,1.05-.62,2.34.95,2.91,2.24.82,2.89.13,2.71-2.89.83,0,1.65,0,2.48-.01,0,1.09-.49,2.24.43,3.21-1.19,3.3-4.01,3.83-6.97,4.13.74-1.69,3.03-.94,4.16-2.76-2.9-.31-5.76.37-8.19-1.24Z"/>
  <path class="cls-7" d="M25.24,233.03c-.67,0-1.34,0-2.01,0-.82-.24-1.65-.24-2.48,0-.4-.01-.8-.02-1.19-.04-.13-.06-.26-.13-.4-.19,0,0-.04.03-.04.03-.03-.96-.05-1.92-.08-2.88,2.6-.78,5.27-.18,7.9-.4l.24.87c-.09.83-.18,1.66-.27,2.49-.56.04-1.12.08-1.68.12Z"/>
  <path class="cls-6" d="M39.9,39.09c.02,9.04.04,18.07.04,27.11,0,.39-.18.77-.28,1.16-.28-9.11-.19-18.21-.07-27.32,0-.32.2-.63.31-.95Z"/>
  <path class="cls-9" d="M27.19,230.41c-.08-.29-.16-.58-.24-.87.41-.27.93-.88.38-1.05-2.31-.74-1.38-2.04-.75-3.35.7-.92.23-1.97.33-2.96.69-.06,1.15.32,1.54.83.11.03.23.04.34.04l-.08,1.59c-.49-.08-1.42-.21-.74.58.9,1.05,1.36,2,1.16,3.4-.13.92.77.91,1.44.95-.03.13-.06.26-.1.38-.12.15-.24.29-.36.44-.97,0-1.94.02-2.92.03Z"/>
  <path class="cls-6" d="M165.09,2.17c-.17,1.03-.38,2.27-1.91,2.26-1.33,0-1.87-1.04-1.95-2.2-.08-1.23.47-2.12,1.83-2.22,1.42-.1,1.9.79,2.02,2.16Z"/>
  <path class="cls-6" d="M37.52,179.78c.13,1.71-.5,3.08-1.95,3.97-1.66,1.02-2.34,2.93-3.87,4.12-.78.61-1.43.84-2.3.86,2.36-3.3,5.59-5.81,8.13-8.95Z"/>
  <path class="cls-6" d="M220.76,232.81c5.98-.65,11.97-.65,17.95,0-5.98,0-11.97,0-17.95,0Z"/>
  <path class="cls-6" d="M65.68,31.81c-.92-.97-.43-2.12-.43-3.21,0,0,0,0,0,0,.18-.12.35-.23.53-.35,3.12-.09,3.66.54,2.72,3.17-.27.14-.54.28-.81.42-.67-.01-1.35-.02-2.02-.03Z"/>
  <path class="cls-6" d="M62.77,28.62c.18,3.02-.47,3.71-2.71,2.89-1.57-.57-.89-1.86-.95-2.91.69-.15,1.38-.3,2.06-.45.38.07.76.14,1.14.21.15.09.3.17.45.26Z"/>
  <path class="cls-6" d="M7.67,212.72c.05.76.1,1.52-.78,1.9-1.83.79-2.5,2.67-3.71,4.04-.95,1.07-1.82,2.12-3.13,2.73-.21-.8.35-1.28.8-1.76,2.21-2.37,4.21-4.94,6.81-6.91Z"/>
  <path class="cls-6" d="M287.39,107.74c-.04-.95-.18-1.9-.1-2.84.33-3.94-.48-7.8-.8-11.7-.08-.95-.05-1.93.91-2.53.25,5.69.24,11.38-.01,17.07Z"/>
  <path class="cls-9" d="M19.04,229.94c.03.96.05,1.92.08,2.88-.97-.17-2.06.37-2.9-.53,0-.77.02-1.54.03-2.31.91-1.56,1.85-1.03,2.79-.04Z"/>
  <path class="cls-6" d="M207.7,232.81c3.26-.65,6.52-.65,9.79,0-3.26.17-6.52.17-9.79,0Z"/>
  <path class="cls-6" d="M4.76,231.24c2.92.52,5.72,1.91,8.81,1.25.19-.04.44.25.67.38-.14.1-.28.21-.41.31-2.63-.05-5.26,0-7.75-1.09-.5-.22-1.01-.37-1.31-.86Z"/>
  <path class="cls-6" d="M287.4,89.78c-.21-5.39-.25-10.78.03-16.17.23,5.39.23,10.78-.03,16.17Z"/>
  <path class="cls-9" d="M49.16,28.74c-1.91.86-3.69,1.94-5.31,3.29.39-2.07,2.72-3.51,5.31-3.29Z"/>
  <path class="cls-6" d="M19.51,199.7c-.14,1.98-2.15,4.25-4.01,4.55,1.2-1.64,2.48-3.21,4.01-4.55Z"/>
  <path class="cls-6" d="M282.79,232.83c2.18-.68,4.36-.68,6.54,0-2.18.19-4.36.2-6.54,0Z"/>
  <path class="cls-6" d="M10.92,209.01c-.08,2.48-1.07,3.63-2.86,3.29.78-1.24,1.76-2.32,2.86-3.29Z"/>
  <path class="cls-6" d="M24.94,193.89c.29.17.67.64.45.71-1.4.4-1.77,2.31-3.41,2.27.68-1.3,1.77-2.19,2.96-2.98Z"/>
  <path class="cls-9" d="M43.78,32.11c-.34.54-.69,1.08-1.03,1.62-.13.19-.26.38-.38.57,0,0,.01-.02.01-.02-.25.02-.51.04-.76.06-.22-1.66.41-2.5,2.17-2.23Z"/>
  <path class="cls-6" d="M275.85,232.83c1.23-.65,2.45-.65,3.68,0-1.23.19-2.45.19-3.68,0Z"/>
  <path class="cls-6" d="M.03,222.6c1.17.94,1.05,2.13.68,3.37-.67-1.03-.78-2.18-.68-3.37Z"/>
  <path class="cls-6" d="M326.44,225.05c-1.12-1-1.21-1.84.36-2.44.11.85,0,1.67-.36,2.44Z"/>
  <path class="cls-6" d="M166.88,232.82c1.09-.62,2.18-.62,3.27,0-1.09.19-2.18.19-3.27,0Z"/>
  <path class="cls-6" d="M28.96,189.23c.18,1.1-.5,1.74-1.26,2.34h0c-.22-.03-.44-.07-.66-.1.5-.87,1.13-1.62,1.92-2.24Z"/>
  <path class="cls-6" d="M21,197.94c.29,1.27.28,2.28-1.51,1.77.35-.72.87-1.29,1.51-1.77Z"/>
  <path class="cls-6" d="M296.18,187.11c-1.66.86-1.52-.35-1.57-1.36.84.09,1.25.67,1.57,1.36Z"/>
  <path class="cls-6" d="M16.25,229.98c0,.77-.02,1.54-.03,2.31-.12.19-.24.38-.35.57-.14-.04-.28-.07-.42-.11,0-.95,0-1.9,0-2.85.27.03.53.05.8.08Z"/>
  <path class="cls-6" d="M2.8,229.55c1.15,0,1.92.45,2,1.71-.9-.3-1.53-.9-2-1.71Z"/>
  <path class="cls-9" d="M55.47,28.48c-.55-.11-1.1-.23-1.64-.34.05-.45-.02-1.09.65-1.02.71.08.81.8.99,1.36Z"/>
  <path class="cls-6" d="M313.89,206.65c-1.12-.23-2.08-.63-2.12-2,.62.76,1.76.97,2.12,2Z"/>
  <path class="cls-6" d="M307.8,200.1c-1.25-.07-1.74-.82-1.75-1.98.74.52,1.32,1.19,1.75,1.98Z"/>
  <path class="cls-6" d="M26.48,192.08c.06.93-.14,1.63-1.3,1.52.29-.63.74-1.12,1.3-1.52Z"/>
  <path class="cls-6" d="M145.99,232.84c1.28,0,2.56,0,3.84,0-1.28.2-2.56.2-3.84,0Z"/>
  <path class="cls-6" d="M292.98,183.82c-.52-.16-1.98.46-.88-1.05.42.24.76.56.88,1.05Z"/>
  <path class="cls-9" d="M52.99,28.15c-.8.15-1.58.44-2.42.25.77-.41,1.53-.95,2.42-.25Z"/>
  <path class="cls-9" d="M15.45,232.76c.14.04.28.07.42.11-.57.79-1.23,1.04-2.04.33.14-.1.28-.21.41-.31.4-.04.8-.08,1.21-.12Z"/>
  <path class="cls-6" d="M12.6,207.12c.05.8-.29,1.23-1.12,1.23.27-.51.61-.95,1.12-1.23Z"/>
  <path class="cls-4" d="M20.75,233.01c.83-.23,1.65-.23,2.48,0-.83.37-1.65.37-2.48,0Z"/>
  <path class="cls-6" d="M319.52,232.24c.25-.81.95-.61,1.52-.68-.4.47-.96.58-1.52.68Z"/>
  <path class="cls-6" d="M46.86,232.83c.83,0,1.67,0,2.5,0-.83.18-1.67.19-2.5,0Z"/>
  <path class="cls-6" d="M322.86,216.46c-.68.04-1.25-.07-1.23-.94.39.35,1.09.27,1.23.94Z"/>
  <path class="cls-6" d="M21.98,196.87c0,.65-.08,1.24-.98,1.08.22-.45.49-.87.98-1.08Z"/>
  <path class="cls-6" d="M324.87,228.41c-.04-.61-.02-1.19.77-1.31-.06.55-.31.99-.77,1.31Z"/>
  <path class="cls-6" d="M41.61,34.35c.26-.02.51-.04.76-.06,0,.7-.45.86-1.03.86.09-.27.18-.53.27-.8Z"/>
  <path class="cls-6" d="M15.47,204.27c-.08.67-.55.79-1.1.78.15-.57.61-.7,1.1-.78Z"/>
  <path class="cls-6" d="M321.97,231.02c.15-.67.68-.66,1.19-.66-.21.55-.69.64-1.19.66Z"/>
  <path class="cls-6" d="M95.4,232.84c.72,0,1.43,0,2.15,0-.72.18-1.43.18-2.15,0Z"/>
  <path class="cls-6" d="M298.22,189.53c-.57-.03-.73-.42-.79-.9.43.15.66.49.79.9Z"/>
  <path class="cls-6" d="M313.7,232.86c.61,0,1.22,0,1.83,0-.61.2-1.22.21-1.83,0Z"/>
  <path class="cls-6" d="M299.94,191.57c-.54-.06-.79-.37-.78-.9.4.18.69.46.78.9Z"/>
  <path class="cls-4" d="M25.24,233.03c.56-.04,1.12-.08,1.68-.12-.52.55-1.09.43-1.68.12Z"/>
  <path class="cls-6" d="M302.41,194.42c-.59-.06-.82-.42-.81-.98.41.21.7.52.81.98Z"/>
  <path class="cls-6" d="M303.16,195.26c-.5-.07-.75-.35-.76-.85.39.16.66.43.76.85Z"/>
  <path class="cls-6" d="M304.54,196.38c-.51.07-.85-.12-.95-.65.45.02.86.09.95.65Z"/>
  <path class="cls-6" d="M14.18,205.34c.02.56-.24.87-.81.91.11-.44.41-.72.81-.91Z"/>
  <path class="cls-6" d="M315.4,208.33c-.49-.07-.74-.36-.76-.85.39.16.65.44.76.85Z"/>
  <path class="cls-6" d="M321.08,214.87c-.48-.08-.71-.37-.73-.85.39.15.59.48.73.85Z"/>
  <path class="cls-6" d="M317.13,210.33c-.59-.04-.84-.37-.81-.94.4.2.69.5.81.94Z"/>
  <path class="cls-6" d="M32.17,232.83c.42,0,.84,0,1.25,0-.42.17-.84.17-1.25,0Z"/>
  <path class="cls-9" d="M62.32,28.36c-.38-.07-.76-.14-1.14-.21.47-.41.87-.46,1.14.21Z"/>
  <path class="cls-6" d="M89.26,232.84c.32,0,.64,0,.95,0-.32.17-.64.17-.95,0Z"/>
  <path class="cls-6" d="M293.6,184.57c-.4-.08-.56-.36-.61-.74.2.25.41.49.61.74Z"/>
  <path class="cls-6" d="M317.51,210.76c-.13-.15-.27-.3-.4-.45.13.15.27.3.4.45Z"/>
  <path class="cls-6" d="M318.24,211.57c-.12-.13-.23-.25-.35-.38.12.13.23.25.35.38Z"/>
  <path class="cls-6" d="M318.93,212.38c-.11-.05-.17-.13-.21-.25.16,0,.23.09.21.25Z"/>
  <path class="cls-9" d="M73.47,28.23c-.14.02-.28.05-.42.07.14-.02.28-.05.42-.07Z"/>
  <path class="cls-6" d="M298.83,190.3c-.16-.2-.32-.4-.48-.59.16.2.32.4.48.59Z"/>
  <path class="cls-6" d="M319.97,213.47s.04.08.04.08c0,0-.04-.08-.04-.08Z"/>
  <path class="cls-6" d="M11.4,208.44c-.04.1-.11.19-.21.24-.02-.16.05-.24.21-.24Z"/>
  <path class="cls-6" d="M323.6,217.3c-.13-.15-.26-.3-.39-.45.13.15.26.3.39.45Z"/>
  <path class="cls-6" d="M13.4,206.23c-.14.15-.27.29-.41.44.14-.15.27-.29.41-.44Z"/>
  <path class="cls-6" d="M2.07,228.71c.11.14.22.27.33.41-.11-.14-.22-.27-.33-.41Z"/>
  <path class="cls-6" d="M296.83,187.9c-.07-.07-.13-.14-.18-.23,0,0,.16.06.16.06l.02.17Z"/>
  <path class="cls-6" d="M311.39,204.22c-.14-.16-.27-.31-.41-.47.14.16.27.31.41.47Z"/>
  <path class="cls-6" d="M291.64,182.19c-.1-.1-.19-.21-.29-.31.1.1.19.21.29.31Z"/>
  <path class="cls-6" d="M290.91,181.37c-.12-.14-.24-.28-.35-.42.12.14.24.28.35.42Z"/>
  <path class="cls-6" d="M310.66,203.37c-.15-.18-.31-.36-.46-.54.15.18.31.36.46.54Z"/>
  <path class="cls-4" d="M30.1,230.38c.12-.15.24-.29.36-.44,0,.16-.02.32-.03.48,0,0-.17,0-.17,0l-.16-.05Z"/>
  <path class="cls-6" d="M321.14,231.5c.16-.1.32-.2.48-.3-.16.1-.32.2-.48.3Z"/>
  <path class="cls-6" d="M326.79,221.37c-.08-.21-.17-.42-.25-.63.08.21.17.42.25.63Z"/>
  <path class="cls-6" d="M305.68,197.69c-.14-.15-.28-.3-.42-.45.14.15.28.3.42.45Z"/>
  <path class="cls-6" d="M304.94,196.84c-.15-.16-.3-.33-.44-.49.15.16.3.33.44.49Z"/>
  <path class="cls-6" d="M297.1,188.19s0,.02,0,.02c0,0,0-.02,0-.02Z"/>
  <path class="cls-9" d="M65.78,28.26c-.18.12-.35.23-.53.35.18-.12.35-.23.53-.35Z"/>
  <path class="cls-6" d="M325.67,219.61s.04.06.04.06-.04-.06-.04-.06Z"/>
  <path class="cls-4" d="M19.16,232.79c.13.06.26.13.4.19-.26.21-.38.12-.4-.19Z"/>
  <path class="cls-6" d="M325.07,218.91c-.12-.06-.21-.15-.25-.28.08.09.17.18.25.28Z"/>
  <path class="cls-6" d="M1.84,228.37c.08.07.14.15.17.25,0,0-.16-.08-.16-.08v-.17Z"/>
  <path class="cls-12" d="M65.68,31.81c.67.01,1.35.02,2.02.03,0,.07-.02.14-.02.2.01.92-1.63,1.45-.93,2.24.72.81,2.09.89,3.22.8,5.34-.44,10.68-.36,16.02-.37.86,0,1.58-.02,2.33-.83,1.25-1.36,4.96-1.08,6.33.23,1.06,1.01,2.27.79,3.34.2,1.43-.79,2.73-1.79,3.78.42.09.18.52.38.68.31,1.53-.64,2.35.55,3.38,1.19-.08.18-.09.35-.18.4-.58.38-1.73.56-1.25,1.47.33.62,1.37.32,2.08.04.63-.25,1.22-.6,1.94-.55,3.41,2.88,6.81,5.79,10.26,8.63.54.45,1.17,1.78,2.06.54.7-.98,1.9-2.05.12-3.39-1.94-1.47-3.65-3.24-5.45-4.88-.05-.83.37-2.07-.65-2.27-1.22-.25-2.27-1.03-3.55-1.01-.12-.09-.24-.18-.36-.27.47-2.3,1.23-2.82,3.32-1.95.74.31,1.23-.02,1.85-.07,6.29-.45,12.66-.79,18.87.04,4.61.61,9.26.96,13.64.21,2.83-.48,4.93.84,7.45.77-1.73-.04-3.09,1.06-4.73,1.24-1.71.19-3.42.54-5.05,1.05-.86.27-2.05.65-1.77,2.07-.59.33-1.17.69-1.78.98-9.42,4.46-16.15,11.77-20.3,21.07-6.86,15.35-4.12,31.01,7.84,43.2,4.19,4.27,6.69,9.09,7.74,14.85.3,1.64.19,3.4,1.14,4.88.48.75.29,1.27-.14,1.98-1.25,2.07-1.37,4.24-.09,6.37.37.61.51,1.1.25,1.87-1.35,3.96.27,7.72,4.1,9.37,1.17.5,1.71,1.22,2.26,2.33,1.36,2.71,2.72,5.54,6.13,6.36.89.21,1.5.9,1.83,1.79.29.78.77,1.44,1.37,2,5.35,4.95,15.26,3.83,18.25-1.9.56-1.06,1.38-1.75,2.48-2.28,2.51-1.23,4.54-3.03,5.25-5.86.34-1.34,1-2,2.31-2.46,3.66-1.3,5.61-5.18,4.52-8.85-.29-.99-.29-1.73.18-2.68,1.05-2.09.95-4.19-.45-6.17-.28-.39-.92-.69-.48-1.38,1.52-2.38,1.48-5.19,2.09-7.82,1.06-4.62,3.02-8.86,6.53-12.01,4.98-4.47,8.46-9.92,10.53-16.09,3.12-9.28,2.58-18.52-1.82-27.47-2.54-5.16-5.43-9.94-9.84-13.78-3.78-3.29-8.03-5.76-12.35-8.16.08-.9-.16-1.48-1.16-1.81-3.09-1.01-6.26-1.69-9.44-2.24-1.51-.26-2.76-.94-4.17-1.42,1.15-.2,2.34-.46,3.37-.15,2.27.67,4.54.7,6.85.67,11.83-.13,23.68.48,35.49-.83,1.95-.22,2.82.56,2.56,2.53-3.46,2.81-6.95,5.58-10.21,8.63-.49.46-1.21.93-.62,1.64.52.63,1.09,1.42,2.18,1.18.64-.14,1.1-.5,1.57-.89,3.84-3.22,7.65-6.46,11.51-9.65,1.61-1.33,3.31-2.55,4.97-3.82,7.32.03,14.65.07,21.97.1.15.8.8.97,1.44,1.26,1.84.85,3.81,1.44,5.36,2.86,2.58,2.36,5.1,4.71,5.1,8.63-.02,39.13-.02,78.26,0,117.4,0,1.53-.34,2.14-2.03,2.15-15.36.12-30.72.02-46.08.23-26.52.36-53.05.11-79.57.09-6.52,0-13.04-.21-19.55-.23-5.62-.02-11.26.22-16.9.23-14.15.03-28.29-.03-42.44.06-2,.01-2.69-.59-2.47-2.54.13-1.14,0-2.31.02-3.47.02-1.12-.38-1.43-1.5-1.07-1.54.5-3.03,1.23-4.69,1.36-.23-5.32-.24-10.64-.1-15.97.04-.04.11-.09.1-.12-.02-.1-.08-.19-.12-.28-.07-1.22-.15-2.45-.22-3.67.08-.41.16-.83.24-1.24,2.66-.66,6.21-4.72,6.29-7.27.15-4.95.34-9.91.35-14.86.04-22.09.08-44.19-.02-66.28-.02-3.56,1.35-6.42,3.17-9.21,1.16-1.78,2.75-3.12,4.66-4.07.63.55.71.04.8-.42h0c2.96-.29,5.79-.82,6.97-4.12ZM218.08,83.99c-1.25.12-2.39-.26-2.59,1.15-.18,1.29.44,2.07,1.7,2.35.2.04.4.09.6.12,6.22.99,12.44,1.98,18.66,2.95.98.15,2.03.17,2.18-1.15.13-1.17-.27-2.17-1.63-2.39-6.42-1.03-12.84-2.05-18.92-3.02ZM217.41,67.4c.83-.12,1.77-.25,2.71-.4,5.48-.88,10.97-1.75,16.45-2.68,1.04-.18,2.28-.38,1.94-2-.32-1.5-1.38-1.68-2.65-1.47-1.54.25-3.08.5-4.61.75-4.74.8-9.48,1.6-14.22,2.42-1.16.2-1.83.87-1.68,2.12.14,1.2,1.04,1.26,2.07,1.25ZM108.67,67.47c1.28.19,1.95-.35,2.18-1.59.27-1.45-.66-1.69-1.76-1.87-4.54-.74-9.08-1.52-13.62-2.27-2-.33-4.01-.67-6.02-.89-1.13-.12-1.83.61-1.9,1.68-.06.92.55,1.45,1.49,1.61,6.54,1.1,13.08,2.22,19.62,3.33ZM89.62,90.55c1.33-.22,2.73-.47,4.13-.69,5.22-.8,10.44-1.61,15.67-2.35,1.35-.19,1.64-.8,1.44-2.07-.26-1.63-1.34-1.43-2.42-1.27-4.89.72-9.78,1.46-14.67,2.19-1.54.23-3.09.41-4.61.74-1.09.23-1.53,1.1-1.37,2.16.14.95.8,1.36,1.83,1.28ZM210.04,101.21c-1.08-.06-1.62.15-1.89.81-.25.61-.23,1.25.25,1.71.43.41.95.79,1.5,1.01,5.21,2.1,10.44,4.18,15.67,6.24,1.12.44,2.2.38,2.75-.89.59-1.36-.26-1.97-1.39-2.43-4.21-1.69-8.41-3.43-12.63-5.09-1.51-.59-3.08-1-4.25-1.37ZM99.85,111.15c1.51-.57,3.48-1.29,5.42-2.07,3.9-1.56,7.8-3.13,11.68-4.75,1.1-.46,1.86-1.22,1.27-2.55-.6-1.35-1.61-.91-2.59-.52-5.1,2.02-10.21,4.03-15.31,6.06-.69.28-1.38.59-2,.99-.6.39-.96,1.03-.74,1.76.25.81.93,1.13,2.26,1.08Z"/>
  <path class="cls-13" d="M43.54,159.33c1.65-.13,3.14-.86,4.69-1.36,1.12-.36,1.52-.05,1.5,1.07-.02,1.16.11,2.33-.02,3.47-.22,1.95.47,2.55,2.47,2.54,14.15-.08,28.29-.03,42.44-.06,5.63-.01,11.28-.25,16.9-.23,6.51.02,13.03.22,19.55.23,26.52.02,53.05.26,79.57-.09,15.36-.21,30.72-.12,46.08-.23,1.69-.01,2.03-.62,2.03-2.15-.03-39.13-.02-78.26,0-117.4,0-3.92-2.52-6.27-5.1-8.63-1.55-1.42-3.52-2.01-5.36-2.86-.63-.29-1.29-.46-1.44-1.26,1.27-.08,2.53-.16,3.8-.24,7.34,0,14.68,0,22.02-.01,2.21,0,4.34.34,6.24,1.54,3.18,2.02,4.7,4.91,4.69,8.71-.03,22.98-.02,45.97-.02,68.95,0,.61.07,1.22.1,1.83,0,2.31,0,4.63,0,6.94-.03.68-.1,1.35-.1,2.03,0,10.99-.02,21.98,0,32.97,0,5.76.06,11.53.09,17.29-.03.36-.06.72-.09,1.08-.66.62-1.47.61-2.3.61-17.95.06-35.9.17-53.84.19-35.56.03-71.11.01-106.67.03-1.21,0-2.44-.19-3.64.2-2.05-.17-4.09-.18-6.14,0-.68-.18-1.36-.18-2.05,0-1.09-.17-2.18-.17-3.27,0-.81-.04-1.62-.11-2.44-.11-17.21,0-34.42,0-51.63.02-1.56,0-3.12.07-4.68.11-.28,0-.57,0-.85,0-.81-.04-1.62-.07-2.42-.11,0,0,.02.01.02.01-.33-5.02-.26-10.04-.1-15.06Z"/>
  <path class="cls-10" d="M28.44,223.01c-.39-.51-.84-.89-1.54-.83-.71-.56-1.55-.39-2.35-.4-3.99-.06-7.99-.11-11.98-.16-.08-.77.41-1.25.9-1.74,3.27-3.24,6.26-6.73,9.37-10.12,4.34-4.73,8.37-9.73,12.79-14.37,2.44-2.56,4.41-5.48,6.75-8.11,1.78-2.02,3.56-4.18,4.65-6.74.51-.41,1-.86,1.53-1.23,1.52-1.07,3.27-.4,3.7,1.4-.3,1.01-1.37,1.24-1.97,1.95-4.11,4.88-8.62,9.39-13.14,13.88-.66.65-1.2,1.38-.82,2.34.41,1.03,1.34,1.27,2.34,1.29.54.01,1.09.01,1.63.01,28.96-.05,57.93-.15,86.89-.13,52.49.04,104.98.15,157.47.19,1.46,0,3.43.72,4.19-1.15.86-2.13-1.24-3.1-2.39-4.3-4.58-4.77-9.25-9.47-13.89-14.19-.23-1.22-1.22-.86-1.95-.86-5.54-.03-11.08-.04-16.62,0-1.23,0-1.99-.27-1.82-1.67,9-.02,18-.05,26.99-.07-.93,1.22-.77,2.13.4,3.25,2.63,2.52,4.7,5.54,7.24,8.19,3.49,3.66,6.66,7.65,9.93,11.53,3.54,4.19,7.18,8.26,10.86,12.33,2.22,2.45,4.38,4.96,6.64,7.38.89.96.17,1.02-.5,1.2-.81.02-1.63.06-2.44.06-17.67,0-35.34-.01-53.01,0-12.57,0-25.15.05-37.72.09-1.18,0-2.36.08-2.71-1.43-.14-.41-.28-.83-.42-1.24-.38-1.11-.76-2.22-1.14-3.33-.01-.43-.02-.87-.38-1.19-.72-2.22-.76-4.69-2.5-6.51-.11-2.29-1.78-2.18-3.37-2.19-16.25-.05-32.51-.13-48.76-.15-15.23-.02-30.47.04-45.7-.03-1.81,0-2.64.54-3.12,2.29-1.11,4.06-2.48,8.06-3.62,12.11-.34,1.23-.89,1.58-2.11,1.56-4.15-.08-8.3-.06-12.44-.07-.47-.05-.94-.14-1.41-.14-19.71.01-39.41.03-59.12.05-.54,0-1.09-.1-1.58.25-.67.05-1.35.1-2.02.15-.13-.05-.25-.11-.38-.16-.16-.23-.32-.22-.48,0-.14.06-.27.12-.41.19-.39.15-.38.51-.44.83ZM269.34,214.57s0,.05,0,.08c2.31,0,4.62.04,6.93-.02,1-.02,2.18,0,2.11-1.54-.06-1.32-.77-1.93-2.11-1.92-4.62.02-9.25.02-13.87,0-1.27,0-1.95.64-1.94,1.84.01,1.18.83,1.59,1.94,1.58,2.31-.02,4.62,0,6.94,0ZM296.92,214.78h0c1.35,0,2.71-.05,4.05.03,1.21.07,1.71-.35,1.67-1.6-.03-1.08-.19-1.83-1.52-1.82-2.84.03-5.68.02-8.51-.04-1.2-.03-1.55.54-1.47,1.61.07.98.1,1.92,1.52,1.84,1.42-.08,2.84-.02,4.26-.02ZM284.36,210.86c-1.34.06-2.39.47-2.47,1.92-.08,1.48.88,2.07,2.19,2.04,1.25-.03,2.75.06,2.83-1.79.07-1.79-1.37-1.9-2.55-2.17Z"/>
  <path class="cls-4" d="M30.57,229.57c-.68-.04-1.57-.03-1.44-.95.2-1.4-.25-2.35-1.16-3.4-.68-.79.25-.66.74-.58,1.07,1.09,2.43.64,3.66.64,25.54-.01,51.09-.07,76.63-.1,21.81-.02,43.62-.02,65.43-.01.74,0,1.48.12,2.22.18.35,1.41,1.5.92,2.35.92,10.17.03,20.34.14,30.51,0,12.44-.18,24.86.4,37.29.57,3.25.05,6.47-.11,9.71-.15,1.64-.02,3.2.59,4.85.43,5.87-.58,11.77-.81,17.66-.79,9.23.03,18.47-.19,27.71.3,4.04.21,8.12-.48,12.19-.35.82.03,1.57.05,2.08.81,0,.14,0,.27,0,.41-.23.21-.46.42-.68.62-1.87,1.3-3.96,1.56-6.2,1.56-55.96-.06-111.92-.09-167.89-.11-38.55-.01-77.11,0-115.66.01Z"/>
  <path class="cls-16" d="M57.9,36.36c-1.91.95-3.5,2.29-4.66,4.07-1.83,2.79-3.19,5.65-3.17,9.21.1,22.09.06,44.19.02,66.28,0,4.95-.2,9.91-.35,14.86-.08,2.55-3.63,6.61-6.29,7.27-.03-6.12-.11-12.24-.09-18.35.05-25.72.11-51.43.18-77.15.02-5.74,3.19-9.55,8.57-10.39.34.16.64.11.88-.18.56-.01,1.12-.03,1.68-.04,2.42,1.61,5.29.93,8.19,1.24-1.13,1.82-3.41,1.07-4.16,2.76,0,0,0,0,0,0-.33.03-.63.1-.8.42Z"/>
  <path class="cls-8" d="M52.26,180.7c-.43-1.79-2.19-2.46-3.7-1.4-.53.38-1.02.82-1.53,1.23-.22-1.07.97-1.52,1.08-2.45.61-.04,1.21-.1,1.82-.1,65.11-.02,130.22-.03,195.33-.04,2.31,0,4.62.08,6.92.12-.17,1.41.59,1.68,1.82,1.67,5.54-.04,11.08-.03,16.62,0,.73,0,1.72-.36,1.95.86-1.12-.39-2.29-.25-3.44-.25-70.18.02-140.36.05-210.54.09-2.11,0-4.22.17-6.33.26Z"/>
  <path class="cls-11" d="M112.07,220.99c1.14-3.53.32-3.08,4.06-3.08,31.79,0,63.59.03,95.38.02,2.19,0,2.68,1.34,2.86,3.08-16.3-.03-32.61.05-48.91-.25-6.51-.12-13.04.2-19.55.22-11.28.04-22.56.01-33.84.01Z"/>
  <path class="cls-16" d="M48.11,178.09c-.11.93-1.3,1.37-1.08,2.45-1.09,2.56-2.86,4.72-4.65,6.74-2.33,2.64-4.31,5.55-6.75,8.11-4.42,4.64-8.45,9.65-12.79,14.37-3.11,3.39-6.1,6.88-9.37,10.12-.49.48-.97.96-.9,1.74-2.57.09-5.14.17-7.72.26-.39-.06-1.14.15-.47-.66.42-.51.83-1.02,1.25-1.53.5-.06.96-.2,1.11-.77,1.14-1.29,2.28-2.58,3.42-3.87,0,0,.16-.03.16-.03,0,0,.03-.16.03-.16,2.89-3.1,5.83-6.17,8.67-9.31,6.83-7.56,13.63-15.15,20.43-22.74.63-.7,1.15-1.49,1.73-2.24.58-.54,1.51-.7,1.71-1.64,1.51-1.7,3.45-.71,5.21-.85Z"/>
  <path class="cls-13" d="M313.73,221.87c.68-.18,1.4-.24.5-1.2-2.25-2.42-4.42-4.92-6.64-7.38-3.67-4.06-7.32-8.14-10.86-12.33-3.27-3.88-6.44-7.87-9.93-11.53-2.53-2.65-4.6-5.68-7.24-8.19-1.17-1.12-1.33-2.04-.4-3.25,1.35-.29,2.7-.28,4.04.05,1.05,1.13,1.67,2.69,3.27,3.28.12.4.35.7.75.87.34.73.81,1.35,1.51,1.78l.17-.06s-.17.07-.17.07c.16.5.49.86.93,1.12,0,0-.02-.02-.02-.02.12.45.43.74.83.95.08.1.16.2.24.31.3.61.68,1.14,1.29,1.47.17.42.43.76.85.95.68,1.28,1.6,2.34,2.92,3.01.02.15.1.24.25.26.19.21.38.42.57.62,0,0,.08.14.08.14.1.43.35.72.76.87,0,0-.02-.01-.02-.01.13.51.43.88.89,1.12.14.16.27.31.41.47.26.55.66.98,1.18,1.3.09.13.18.26.28.39.17.19.35.38.52.57,0,.15.09.24.24.25.21.25.42.5.62.75.38.68.86,1.26,1.51,1.69,1.24,1.26,2.48,2.53,3.72,3.79.17.46.46.83.91,1.05.26.29.51.58.77.87.11.39.36.66.72.82.65,1.13,1.54,2.05,2.52,2.9.1.13.19.26.29.38.28.88,1.13,1.11,1.79,1.55.11.39.34.69.72.85.43.8,1.01,1.46,1.73,2.01.13.15.26.29.39.44l.43.48c.1.1.19.2.29.3.16.18.32.37.48.55.1.11.2.23.31.34.16.2.33.39.49.59,0,.14.08.23.22.25.22.24.43.47.65.71l.04.1s.11,0,.11,0c.2.21.4.42.6.63l.07.13c.67.97,1.17,2.11,2.41,2.55-.39.55-1.04.52-1.59.7-2.47-.33-4.97.21-7.43-.3Z"/>
  <path class="cls-5" d="M138.11,214.46c-7.21,0-14.42-.03-21.62.03-1.48.01-2.04-.35-1.42-1.83.21-.5.33-1.04.43-1.57.26-1.39.91-2.01,2.49-2,13.87.06,27.74.06,41.61,0,1.78,0,2.25.65,2.12,2.27-.12,1.5.43,3.18-2.18,3.13-7.14-.12-14.28-.04-21.42-.04v.03Z"/>
  <path class="cls-5" d="M188.26,214.45c-7.14,0-14.28-.04-21.41.03-1.62.02-2.13-.5-2.07-2.1.14-3.67-.33-3.27,3.33-3.24,13.52.1,27.05.24,40.57.37,1.51.01,3.56,3.25,2.87,4.56-.36.69-1.1.38-1.66.38-7.21.02-14.41.01-21.62.01v-.02Z"/>
  <path class="cls-6" d="M176.64,225.34c-.74-.06-1.48-.18-2.22-.18-21.81,0-43.62,0-65.43.01-25.54.03-51.09.09-76.63.1-1.23,0-2.6.45-3.66-.64.03-.53.05-1.06.08-1.59.03-.29.06-.58.1-.87.14-.06.27-.12.41-.19.16,0,.32,0,.48,0,.13.05.25.11.38.16q-.6,2.5,2.17,2.5c95.65,0,191.31,0,286.96,0,.88,0,1.78-.17,2.62.2.86.38,1.35.86.15,1.48,0,0-.1-.09-.1-.09-.17-1.52-1.34-.81-2.04-.81-36.68-.06-73.37-.07-110.05-.11-11.07-.01-22.14-.25-33.21.02Z"/>
  <path class="cls-6" d="M117.11,174.47c1.2-.38,2.43-.2,3.64-.2,35.56-.02,71.11,0,106.67-.03,17.95-.02,35.9-.13,53.84-.19.83,0,1.64,0,2.3-.61-.46,1.55-1.07,2.55-3.01,1.6-1.22-.6-2.71-.36-4.03-.15-2.64.44-5.24.16-7.88.04-3.77-.17-7.58.14-11.36.46-3.12.26-6.22.37-9.33-.01-.74-.09-1.51-.25-2.22-.14-5.08.8-10.16-.44-15.21.04-4.42.43-8.78.08-13.18-.05-32.69-.94-65.39-.16-98.08-.43-.73,0-1.51.2-2.16-.35Z"/>
  <path class="cls-6" d="M313.73,221.87c2.46.52,4.96-.03,7.43.3-.19.95-.94.83-1.6.83-15.42,0-30.85.01-46.27-.01-1.67,0-3.16-1.02-4.94-.8-14.8,1.83-29.68.31-44.51.86-1.89.07-3.45-1.07-5.33-.96-.62.04-1.16-.68-.67-1.52.36,1.52,1.53,1.44,2.71,1.43,12.57-.04,25.15-.08,37.72-.09,17.67-.01,35.34,0,53.01,0,.81,0,1.63-.04,2.44-.06Z"/>
  <path class="cls-5" d="M112.07,220.99c11.28,0,22.56.03,33.84-.01,6.52-.02,13.04-.34,19.55-.22,16.3.3,32.61.22,48.91.25.67,1.33-.39,1.16-1.07,1.15-5.27-.09-10.53-.23-15.8-.34-.41-.47-.98-.41-1.51-.41-8.08-.01-16.16-.02-24.23-.03-.6,0-1.24-.07-1.7.46-6.63.56-13.27.35-19.91.34-12.2-.03-24.4-.14-36.61-.27-.5,0-1.8.68-1.48-.91Z"/>
  <path class="cls-4" d="M16.25,229.98c-.27-.03-.53-.05-.8-.08-.54,0-1.08,0-1.62,0-1.12-.1-2.23-.2-3.35-.31.42-.34.64-.86.31-1.25-.79-.94-.64-2.02-.66-3.09,5.45-.06,10.9-.12,16.35-.18,0,0,.09.07.09.07-.63,1.31-1.56,2.61.75,3.35.55.18.03.78-.38,1.05-2.63.22-5.3-.38-7.9.4-.94-.99-1.88-1.52-2.79.04Z"/>
  <path class="cls-6" d="M283.64,172.37c-.03-5.76-.08-11.53-.09-17.29-.01-10.99,0-21.98,0-32.97,0-.68.06-1.35.1-2.03,1.13.36.75,1.32.75,2.06.03,6.11.02,12.22.02,18.32,0,9.88.01,19.76-.02,29.64,0,.79.46,1.84-.76,2.26Z"/>
  <path class="cls-4" d="M32.17,222c.48-.35,1.04-.24,1.58-.25,19.71-.02,39.41-.04,59.12-.05.47,0,.94.09,1.41.14-.53.07-1.07.19-1.6.19-19.63.05-39.27.09-58.9.12-.54,0-1.07-.1-1.61-.15Z"/>
  <path class="cls-6" d="M43.54,159.33c-.15,5.02-.23,10.04.1,15.06-.95-.17-1.08-.79-1.04-1.65.44-9.65.18-19.31.11-28.97-.01-1.57-.38-3.06.5-4.49.07,1.22.15,2.45.22,3.67,0,.13.01.27.02.4-.14,5.32-.13,10.65.1,15.97Z"/>
  <path class="cls-6" d="M46.9,174.49c1.56-.04,3.12-.11,4.68-.11,17.21-.02,34.42-.02,51.63-.02.81,0,1.62.07,2.44.11-.65.54-1.43.35-2.16.35-18.14.01-36.28.01-54.43,0-.73,0-1.51.19-2.16-.33Z"/>
  <path class="cls-11" d="M10.14,225.26c.02,1.07-.13,2.15.66,3.09.33.39.11.91-.31,1.25-.39.01-.77.03-1.16.04-1.73-.73-3.46-1.47-4.71-2.97-.07-.35-.23-.64-.57-.8.1-1.1.96-.65,1.52-.69,1.11-.09,2.23-.08,3.35-.12.41.07.81.13,1.22.2Z"/>
  <path class="cls-6" d="M26.49,223.02c-4.1,0-8.2.01-12.3-.02-.74,0-1.69.35-2-.8,4.27,0,8.55-.03,12.82,0,.58,0,1.47-.3,1.48.83Z"/>
  <path class="cls-4" d="M170.07,221.83c.46-.53,1.1-.46,1.7-.46,8.08,0,16.16.01,24.23.03.54,0,1.1-.06,1.51.41-9.15,0-18.3.02-27.45.02Z"/>
  <path class="cls-4" d="M26.49,223.02c-.01-1.13-.9-.83-1.48-.83-4.27-.02-8.55,0-12.82,0-2.44-.26-4.91.23-7.33-.32,2.57-.09,5.15-.17,7.72-.26,3.99.05,7.99.09,11.98.16.8.01,1.64-.16,2.35.4-.1.99.37,2.04-.33,2.96,0,0-.09-.07-.09-.07.01-.28.03-.56.04-.84-.01-.4-.02-.81-.03-1.21Z"/>
  <path class="cls-6" d="M26.53,224.23c-.01.28-.03.56-.04.84-5.45.06-10.9.12-16.35.18-.41-.07-.81-.13-1.22-.2.62-.59,1.4-.39,2.12-.4,4.31-.02,8.62-.01,12.93,0,.88,0,1.76.03,2.56-.42Z"/>
  <path class="cls-6" d="M213.41,208.32c1.74,1.82,1.78,4.3,2.5,6.51-.34-.21-.97-.4-.97-.62-.07-2.09-2.19-3.64-1.53-5.89Z"/>
  <path class="cls-6" d="M286.48,181.33c-1.59-.59-2.22-2.15-3.27-3.28.11-.54.48-.99.93-.55,1.08,1.07,2.53,1.96,2.33,3.82Z"/>
  <path class="cls-6" d="M306.82,203.98c-1.24-1.26-2.48-2.53-3.72-3.79,2.29.5,3.75,1.98,3.72,3.79Z"/>
  <path class="cls-6" d="M295.79,191.77c-1.31-.67-2.23-1.73-2.92-3.01,1.32.66,3,.98,2.92,3.01Z"/>
  <path class="cls-6" d="M311.74,209.62c-.98-.84-1.87-1.77-2.52-2.9,2.03-.07,2.11,1.56,2.52,2.9Z"/>
  <path class="cls-6" d="M322.75,221.48c-1.24-.44-1.73-1.58-2.41-2.55,1.89-.18,1.83,1.48,2.41,2.55Z"/>
  <path class="cls-6" d="M216.29,216.02c.38,1.11.76,2.22,1.14,3.33-2.03-.54-.76-2.22-1.14-3.33Z"/>
  <path class="cls-6" d="M9.33,229.63c.39-.01.77-.03,1.16-.04,1.12.1,2.23.2,3.35.31-1.54.59-3.08,1.05-4.51-.27Z"/>
  <path class="cls-6" d="M288.74,183.97c-.7-.43-1.17-1.04-1.51-1.78,1.37-.15,1.96.37,1.51,1.78Z"/>
  <path class="cls-6" d="M316.27,214.41c-.71-.55-1.3-1.21-1.73-2.01,1.64-.25,1.83.75,1.73,2.01Z"/>
  <path class="cls-6" d="M42.9,178.94c-.2.93-1.14,1.1-1.71,1.64-.18-1.33.43-1.83,1.71-1.64Z"/>
  <path class="cls-6" d="M313.83,211.55c-.67-.44-1.51-.67-1.79-1.55,1.23-.22,1.93.18,1.79,1.55Z"/>
  <path class="cls-6" d="M4.05,225.86c.34.16.5.45.57.8-.13.36-.27,1.09-.59.9-.75-.44-.47-1.13.02-1.7Z"/>
  <path class="cls-6" d="M108.92,174.48c.68-.17,1.37-.17,2.05,0-.68,1.09-1.37,1.09-2.05,0Z"/>
  <path class="cls-6" d="M292.02,187.81c-.61-.33-1-.86-1.29-1.47,1.17-.16,1.59.34,1.29,1.47Z"/>
  <path class="cls-6" d="M299.91,196.53c-.52-.32-.91-.75-1.18-1.3.92-.04,1.27.42,1.18,1.3Z"/>
  <path class="cls-6" d="M320.99,227.49c0-.14,0-.27,0-.41.31-.28.63-.55.94-.83,0,0,.1.09.1.09-.07.64-.24,1.18-1.05,1.15Z"/>
  <path class="cls-6" d="M43.63,174.38c.81.04,1.62.07,2.42.11-.83.47-1.64.57-2.42-.11Z"/>
  <path class="cls-6" d="M289.67,185.1c-.44-.27-.77-.62-.93-1.12.98-.18.98.45.93,1.12Z"/>
  <path class="cls-6" d="M298.33,194.76c-.46-.24-.77-.61-.89-1.12.76,0,.88.52.89,1.12Z"/>
  <path class="cls-6" d="M6.75,218.92c-.15.57-.61.7-1.11.77.09-.67.56-.77,1.11-.77Z"/>
  <path class="cls-6" d="M290.49,186.03c-.39-.21-.71-.49-.83-.95.63,0,.87.35.83.95Z"/>
  <path class="cls-6" d="M297.45,193.66c-.42-.14-.67-.44-.76-.87.52.05.77.34.76.87Z"/>
  <path class="cls-6" d="M308.5,205.9c-.26-.29-.51-.58-.77-.87.51.07.76.36.77.87Z"/>
  <path class="cls-9" d="M52.99,31.98c-.25.29-.54.34-.88.18.25-.27.55-.29.88-.18Z"/>
  <path class="cls-6" d="M319.53,218.07c-.22-.24-.43-.47-.65-.71.41.06.59.32.65.71Z"/>
  <path class="cls-6" d="M301.58,198.5c-.21-.25-.42-.5-.62-.75.42.08.58.37.62.75Z"/>
  <path class="cls-6" d="M10.35,214.87l-.03.16s-.16.03-.16.03c.03-.09.1-.15.19-.19Z"/>
  <path class="cls-6" d="M42.36,34.3c.13-.19.26-.38.38-.57-.13.19-.26.38-.38.57Z"/>
  <path class="cls-6" d="M300.71,197.49c-.17-.19-.35-.38-.52-.57.17.19.35.38.52.57Z"/>
  <path class="cls-6" d="M317.1,215.33l-.43-.48c.14.16.29.32.43.48Z"/>
  <path class="cls-6" d="M317.86,216.19c-.16-.18-.32-.37-.48-.55.16.18.32.37.48.55Z"/>
  <path class="cls-6" d="M296.61,192.65c-.19-.21-.38-.42-.57-.62.19.21.38.42.57.62Z"/>
  <path class="cls-6" d="M320.28,218.8c-.2-.21-.4-.42-.6-.63.32.09.52.3.6.63Z"/>
  <path class="cls-6" d="M27.7,191.57s.09.05.13.07c-.04-.02-.09-.05-.13-.07h0Z"/>
  <path class="cls-6" d="M318.66,217.11c-.16-.2-.33-.39-.49-.59.16.2.33.39.49.59Z"/>
  <path class="cls-9" d="M144.43,38.3c-.27-1.42.91-1.8,1.77-2.07,1.63-.52,3.35-.86,5.05-1.05,1.64-.18,3-1.28,4.73-1.24-2.52.08-4.62-1.25-7.45-.77-4.38.75-9.03.4-13.64-.21-6.2-.82-12.58-.49-18.87-.04-.62.04-1.1.37-1.85.07-2.09-.87-2.85-.35-3.32,1.95-1.05-.83-2.1-1.67-3.56-2.82h111.81c-1.18,1.27-2.34,2.26-3.64,3.08.26-1.97-.61-2.74-2.56-2.53-11.8,1.31-23.65.7-35.49.83-2.31.02-4.59,0-6.85-.67-1.03-.3-2.23-.05-3.37.15,1.41.48,2.66,1.17,4.17,1.42,3.18.54,6.35,1.22,9.44,2.24,1,.33,1.24.91,1.16,1.81-.32-.09-.66-.14-.97-.27-5.88-2.5-12.01-3.79-18.41-3.8-6.34,0-12.33,1.64-18.18,3.92Z"/>
  <path class="cls-2" d="M250.63,32.13c-1.27.08-2.53.16-3.8.24-7.32-.03-14.65-.06-21.97-.1.33-.45.83-.4,1.29-.4,7.9.01,15.8.03,23.71.06.26,0,.52.13.77.2Z"/>
  <path class="cls-9" d="M111.22,35.21c1.27-.02,2.32.76,3.55,1.01,1.02.2.59,1.45.65,2.27-1.68-.73-3-1.92-4.19-3.28Z"/>
  <path class="cls-4" d="M28.88,222.18c-.03.29-.06.58-.1.87-.12,0-.23-.01-.34-.04.06-.32.05-.68.44-.83Z"/>
  <path class="cls-7" d="M144.43,38.3c5.85-2.28,11.84-3.93,18.18-3.92,6.39,0,12.52,1.29,18.41,3.8.31.13.64.18.97.27,4.32,2.4,8.58,4.87,12.35,8.16,4.41,3.85,7.3,8.62,9.84,13.78,4.4,8.95,4.95,18.19,1.82,27.47-2.07,6.16-5.55,11.62-10.53,16.09-3.51,3.15-5.47,7.39-6.53,12.01-.6,2.63-.57,5.44-2.09,7.82-.44.69.2.99.48,1.38,1.41,1.97,1.5,4.08.45,6.17-.47.94-.47,1.69-.18,2.68,1.09,3.67-.86,7.55-4.52,8.85-1.31.47-1.98,1.12-2.31,2.46-.71,2.83-2.74,4.63-5.25,5.86-1.1.54-1.92,1.22-2.48,2.28-2.99,5.73-12.9,6.85-18.25,1.9-.6-.56-1.08-1.22-1.37-2-.33-.89-.94-1.58-1.83-1.79-3.41-.82-4.77-3.65-6.13-6.36-.55-1.11-1.09-1.82-2.26-2.33-3.83-1.64-5.45-5.41-4.1-9.37.26-.76.11-1.25-.25-1.87-1.28-2.13-1.16-4.3.09-6.37.43-.71.61-1.23.14-1.98-.94-1.48-.84-3.24-1.14-4.88-1.05-5.77-3.56-10.59-7.74-14.85-11.96-12.19-14.7-27.85-7.84-43.2,4.15-9.3,10.88-16.6,20.3-21.07.61-.29,1.19-.65,1.78-.98ZM160.3,148.58c3.46.03,6.92.11,10.37.07,2.49-.03,4.4-1.26,5.75-3.3.59-.88.66-1.62-.85-1.6-4.95.07-9.9.06-14.85.09-3.38-.04-6.76-.1-10.14-.12-.51,0-1.19-.24-1.47.35-.28.6.18,1.17.49,1.67.21.33.56.58.87.83,2.93,2.31,6.37,2.22,9.82,2.02ZM158.31,139.7c2.02.12,4.07.51,6.07.32,5.15-.48,10.29-.17,15.43-.29,1.18-.03,2.29-.21,3.26-.93.94-.7,1.14-1.66.85-2.72-.3-1.07-1.23-.88-2.03-.88-7.05,0-14.1.02-21.15.03-5.14-.01-10.28-.03-15.43-.04-3.21,0-3.73.95-2.2,3.8.63,1.16,1.74.96,2.66,1,2.57.12,5.14.1,7.71.05,1.61-.03,3.25.34,4.82-.33ZM168.92,125.8c-7.82-.01-15.64-.02-23.46-.03-3.06,0-3.71.75-3.53,3.88.07,1.23.47,1.85,1.82,1.84,7.27-.07,14.55-.07,21.82-.1,5.71.57,11.4-.13,17.1-.35,2.38-.09,1.1-2.33,1.36-3.61.25-1.22-.43-1.67-1.65-1.65-4.49.05-8.98.03-13.47.03ZM170.81,81.39c1.25-.74,1.7-1.77,2.36-2.61.84-1.08,1.66-2.19,2.87-2.86,2.24-1.24,4.58-1.77,6.96-.39,2.39,1.39,3.14,3.65,2.98,6.27-.19,3.14-2.01,5.26-4.52,6.88-1.05.68-1.92,1.43-2.27,2.74-.87,3.26-1.94,6.47-2.75,9.74-1.59,6.45-3.02,12.94-4.59,19.4-.4,1.65.06,2.12,1.73,2.02,2.44-.15,4.9-.19,7.34-.02,2.12.15,3.01-.5,3.2-2.72.63-7.39,3.91-13.56,9-18.89,1.49-1.56,3.17-2.93,4.43-4.72,10.6-15.09,5.76-34.41-2.48-43.35-6.17-6.69-13.2-11.56-21.97-13.61-16.37-3.82-30.15,1.08-41.37,13.33-4.95,5.4-7.19,12.26-8.86,19.2-1.41,5.86-.03,11.55,2.2,17.06,1.71,4.21,3.82,8.23,7.15,11.3,3.81,3.52,6.56,7.56,8.02,12.49.78,2.65,1.5,5.33,2.13,8.02.31,1.31.8,1.96,2.3,1.89,2.65-.13,5.31-.11,7.96-.02,1.58.06,2.17-.22,1.64-1.99-1.55-5.18-2.33-10.56-4.09-15.71-1.18-3.46-1.77-7.12-2.48-10.73-.54-2.7-1.37-5.1-4.09-6.38-.92-.43-1.52-1.32-2.3-1.97-2.54-2.12-2.1-7.14.35-9.31,3.37-2.98,8.27-1.98,10.87,1.53.88,1.19,1.75,2.39,2.93,4,.62-5.16,2.73-8.8,7.94-8.76,4.91.05,7,3.45,7.4,8.13ZM162.56,122.52c1.22,0,2.45-.01,3.67,0,.77.01,1.25-.21,1.46-1.06.78-3.14,1.67-6.26,2.44-9.4,1.83-7.46,3.33-14.99,5.48-22.37.45-1.53,1.12-2.82,2.78-3.51,1.3-.54,2.44-1.48,3.3-2.66.97-1.33,1.3-2.78.13-4.11-1.14-1.29-2.48-.99-3.88-.21-.87.48-1.49,1.15-2.08,1.88-1.32,1.64-2.48,3.46-4,4.88-3.47,3.26-7.42,5.23-12.38,3.54-2.64-.9-4.51-2.75-6.09-4.9-1.37-1.86-2.9-3.56-4.54-5.17-1.62-1.59-3.12-1.76-4.31-.65-1.3,1.23-1.24,3.49.22,4.94.72.71,1.56,1.31,2.39,1.89,2.28,1.59,3.59,3.81,4.2,6.45,2.03,8.81,3.98,17.63,6.01,26.44.92,4.01.97,4,5.2,3.99ZM166.62,81.54c0-3.06-1.31-4.93-3.42-4.89-1.83.04-4.05,2.65-3.99,4.7.06,2.3,1.91,4.4,3.9,4.44,2.27.04,3.52-1.46,3.51-4.25ZM156.64,152.46c.69.66.97,1.11,1.37,1.28,3.04,1.3,6.13,2.18,9.4.82.64-.27,1.76-.05,1.73-1.06-.04-1.14-1.3-.96-1.92-.98-3.36-.12-6.73-.06-10.58-.06Z"/>
  <path class="cls-6" d="M218.08,83.99c6.08.97,12.5,1.99,18.92,3.02,1.36.22,1.76,1.22,1.63,2.39-.15,1.32-1.2,1.3-2.18,1.15-6.22-.97-12.44-1.96-18.66-2.95-.2-.03-.4-.07-.6-.12-1.26-.28-1.87-1.06-1.7-2.35.2-1.41,1.34-1.03,2.59-1.15Z"/>
  <path class="cls-6" d="M217.41,67.4c-1.04,0-1.93-.05-2.07-1.25-.14-1.25.52-1.92,1.68-2.12,4.74-.82,9.48-1.62,14.22-2.42,1.54-.26,3.08-.5,4.61-.75,1.27-.21,2.33-.03,2.65,1.47.35,1.62-.9,1.82-1.94,2-5.48.93-10.96,1.8-16.45,2.68-.94.15-1.88.28-2.71.4Z"/>
  <path class="cls-6" d="M108.67,67.47c-6.54-1.11-13.08-2.23-19.62-3.33-.94-.16-1.55-.69-1.49-1.61.07-1.07.77-1.81,1.9-1.68,2.02.22,4.02.56,6.02.89,4.54.75,9.08,1.53,13.62,2.27,1.1.18,2.03.42,1.76,1.87-.23,1.24-.91,1.78-2.18,1.59Z"/>
  <path class="cls-6" d="M89.62,90.55c-1.03.09-1.69-.33-1.83-1.28-.16-1.06.28-1.93,1.37-2.16,1.52-.32,3.07-.5,4.61-.74,4.89-.74,9.78-1.48,14.67-2.19,1.08-.16,2.16-.37,2.42,1.27.2,1.27-.08,1.88-1.44,2.07-5.23.74-10.45,1.55-15.67,2.35-1.41.21-2.81.46-4.13.69Z"/>
  <path class="cls-6" d="M210.04,101.21c1.17.37,2.74.78,4.25,1.37,4.23,1.66,8.42,3.4,12.63,5.09,1.13.45,1.99,1.06,1.39,2.43-.55,1.27-1.63,1.33-2.75.89-5.23-2.06-10.45-4.14-15.67-6.24-.55-.22-1.07-.6-1.5-1.01-.48-.46-.49-1.1-.25-1.71.27-.66.81-.87,1.89-.81Z"/>
  <path class="cls-6" d="M99.85,111.15c-1.34.05-2.01-.27-2.26-1.08-.22-.72.14-1.37.74-1.76.62-.4,1.31-.72,2-.99,5.1-2.03,10.2-4.05,15.31-6.06.97-.39,1.99-.82,2.59.52.59,1.33-.18,2.1-1.27,2.55-3.88,1.61-7.78,3.19-11.68,4.75-1.94.78-3.91,1.49-5.42,2.07Z"/>
  <path class="cls-9" d="M57.9,36.36c.17-.32.48-.4.8-.42-.1.46-.17.98-.8.42Z"/>
  <path class="cls-13" d="M43.44,143.36c0-.13-.01-.27-.02-.4.04.09.1.18.12.28,0,.03-.07.08-.1.12Z"/>
  <path class="cls-6" d="M52.26,180.7c2.11-.09,4.22-.26,6.33-.26,70.18-.04,140.36-.07,210.54-.09,1.15,0,2.32-.14,3.44.25,4.64,4.72,9.3,9.42,13.89,14.19,1.15,1.2,3.25,2.16,2.39,4.3-.75,1.87-2.73,1.15-4.19,1.15-52.49-.04-104.98-.16-157.47-.19-28.96-.02-57.93.08-86.89.13-.54,0-1.09,0-1.63-.01-1-.02-1.93-.27-2.34-1.29-.38-.97.16-1.69.82-2.34,4.53-4.49,9.03-8.99,13.14-13.88.6-.71,1.67-.94,1.97-1.95ZM220.8,187.17c-.67-1.34-.77-3.49-2.5-3.61-4.4-.28-8.82-.13-13.23-.13-.49,0-.97.06-.81.8.25,1.17,2.4,2.87,3.69,2.88,3.87.03,7.74.07,11.6.11.08.59-.23,1.52.86,1.34.81-.14.7-.8.4-1.39ZM102.43,183.33c.33-.44,1.14-1.16-.17-1.11-3.08.12-6.21-.62-9.25.51-1.29.48-2.69.48-3.98.01-2.76-1-3.43-.46-3.27,2.77-.76,1.51-.25,1.97,1.37,1.93,3.31-.09,6.63-.03,9.94-.03,3.83,0,4.23-.31,5.35-4.08ZM173.81,196.82h0c1.83.01,3.66,0,5.49.02,5.39.05,3.92-.09,3.42-4.13-.17-1.33-.84-1.97-2.31-1.94-4,.08-8,.03-12,.03-3.99,0-3.92.02-3.95,4.06-.01,1.56.58,2.03,2.03,1.99,2.44-.07,4.88-.02,7.32-.02ZM130.46,190.82h0c-1.63,0-3.25,0-4.88,0q-3.78,0-5.08,3.45c-.79,2.09-.57,2.47,1.71,2.49,4.2.04,8.41.06,12.61,0,3.79-.06,3.61.1,4.31-4.24.2-1.22-.29-1.73-1.55-1.7-2.37.05-4.74.02-7.12.02ZM151.4,196.83c1.9,0,3.81,0,5.71,0,3.77,0,3.69,0,3.74-3.86.02-1.62-.59-2.19-2.13-2.18-3.67.04-7.34,0-11.01.02-4.43.02-4.37.04-5.13,4.41-.25,1.43.3,1.64,1.48,1.62,2.45-.04,4.9-.01,7.34-.01ZM196.89,196.8c1.69,0,3.39.07,5.08-.02,1.31-.07,3.08.68,3.79-.46.6-.96-.93-2.04-1.51-3.07-.19-.35-.27-.77-.44-1.13-.44-.94-1.1-1.4-2.23-1.39-4.47.06-8.94.02-13.42.03-1.26,0-2.72-.16-1.38,1.89.42.63.4,1.56.54,2.36.22,1.27.9,1.84,2.24,1.8,2.44-.07,4.88-.02,7.32-.02ZM207.51,190.75c.9,1.91,1.68,3.54,2.44,5.19.36.77,1.03.79,1.72.79,4.75,0,9.51,0,14.26.03,1.13,0,1.54-.22.79-1.36-.85-1.3-1.64-2.66-2.32-4.05-.29-.59-.73-.58-1.15-.58-5.14-.03-10.28-.02-15.75-.02ZM239.22,196.78c2.38,0,4.76.02,7.14-.01.52,0,1.19.07,1.42-.53.19-.49-.29-.86-.59-1.22-.91-1.09-1.84-2.18-2.74-3.28-.49-.61-1.03-1-1.88-.99-4.35.04-8.7.05-13.05.01-1.16-.01-1.31.54-.91,1.35.56,1.15,1.34,2.2,1.87,3.36.47,1.01,1.11,1.37,2.22,1.34,2.17-.08,4.35-.02,6.53-.02ZM86.01,196.49c2.31,0,4.61,0,6.92,0,.53,0,1.15.13,1.52-.36.93-1.23,1.82-2.49,2.68-3.77.72-1.07.62-1.68-.91-1.65-3.05.06-6.12.23-9.15-.04-3.59-.31-6.54.25-8.2,3.85-.13.29-.44.5-.7.71-.27.22-.58.45-.49.81.13.51.62.44,1.01.44,2.44.01,4.88,0,7.33,0ZM98.94,196.53c4.46,0,8.54,0,12.61,0,4.6,0,4.56,0,5.96-4.38.36-1.12.12-1.44-1.02-1.43-4.35.03-8.7,0-13.05-.02-.74,0-1.3.18-1.68.87-.84,1.54-1.73,3.05-2.82,4.96ZM269.02,196.52c.08-.2.16-.4.23-.61-1.57-.8-2.59-2.15-3.68-3.41-1.12-1.29-2.4-1.78-4.1-1.73-3.39.1-6.78,0-10.17.04-.84.01-2.13-.42-2.44.34-.4.97.92,1.44,1.53,2.12.68.76,1.32,1.54,1.95,2.34.39.5.81.9,1.5.9,5.06,0,10.13,0,15.19,0ZM69.43,190.73s0,0,0-.01c-.88,0-1.79.13-2.64-.02-4.19-.77-6.79,1.65-9.23,4.47-.26.3-.68.56-.51,1.01.18.49.69.27,1.06.34,3.44.62,6.92-.39,10.32.09,3.91.55,5.78-1.73,7.58-4.47.67-1.01.54-1.43-.71-1.42-1.96.01-3.93,0-5.89,0ZM133.2,183.37c-2.17,0-4.34-.03-6.51.01-1.79.04-1.83,1.59-2.14,2.77-.3,1.15.78,1.19,1.43,1.2,4.4.07,8.81.16,13.21.03,1.66-.05,1.47-1.66,1.56-2.84.1-1.27-.85-1.16-1.66-1.17-1.97-.01-3.93,0-5.9,0ZM172.67,183.39s0,.01,0,.02c-2.04,0-4.08.05-6.12-.02-1.31-.05-1.82.44-1.81,1.76,0,1.24.13,1.97,1.69,2.11,4.22.36,8.41.19,12.61-.09.7-.05,2.09.59,1.85-.99-.18-1.2.03-2.9-2.11-2.8-2.03.09-4.08.02-6.12.02ZM42.46,196.7c3.11,0,5.73,0,8.35,0,.51,0,.89-.23,1.26-.55,1.79-1.54,3.6-3.07,5.4-4.61-.2-.26-.39-.51-.59-.77-2.8-.2-5.61-.27-8.43-.11-.37.02-.83.2-1.08.47-1.55,1.67-3.28,3.19-4.91,5.57ZM152.94,183.41s0,0,0-.01c-1.96,0-3.93.08-5.89-.02-2.1-.1-2.02,1.52-2.16,2.75-.17,1.45,1.13,1.27,2.02,1.29,4.13.1,8.25.01,12.38-.2,1.31-.07,1.57-.69,1.56-1.81-.01-1.13-.14-2.03-1.6-2.01-2.1.04-4.2,0-6.3,0ZM75.61,183.41c-1.9,0-3.81.16-5.68-.05-1.77-.19-2.63.89-3.42,2.02-.83,1.19-.34,2.01,1.11,2,3.79-.02,7.57.01,11.36-.16,1.9-.09,2.8-.89,3.55-2.38.5-1.01.46-1.48-.83-1.44-2.03.05-4.06.01-6.09.01ZM268.83,191.06c1.59,1.73,2.92,3.17,4.25,4.61.41.45.79.99,1.48.99,2.74.02,5.49,0,8.79,0-2.04-2.2-3.68-3.99-5.35-5.75-.21-.22-.62-.47-.88-.41-2.59.59-5.26-.06-8.29.55ZM193.21,187.16s0-.01,0-.02c2.17,0,4.33.02,6.5-.02.46,0,1.13.25,1.18-.67.07-1.39-1.36-3.04-2.8-3.06-3.86-.04-7.72-.06-11.57,0-.72,0-2.1-.54-1.9.97.16,1.19-.02,2.89,2.1,2.82,2.16-.07,4.33-.02,6.5-.02ZM105.4,187.02c1.03.1,2.15.28,3.28.3,3.32.06,6.66.17,9.98.05,1.81-.07,1.9-1.88,2.01-3.1.12-1.41-1.26-.85-2.01-.87-2.44-.08-4.9.11-7.33-.09-2.96-.24-5.23.36-5.92,3.72ZM259.93,186.86c-1.6-1.36-2.58-3.28-4.51-3.38-3.93-.21-7.89-.07-11.83-.06-.44,0-1.03-.11-.84.72.28,1.23,2.4,3,3.7,3.04,2.38.08,4.75.23,7.13.21,2.02-.02,4.08.37,6.35-.53ZM232.5,187.17v-.02c2.03,0,4.06.02,6.1-.02.47,0,1.49.02,1.12-.62-.7-1.21-1.11-3-2.92-3.05-4.06-.1-8.13-.04-12.19-.04-.74,0-.95.26-.61,1.01.8,1.75,1.66,3.18,4.04,2.78,1.45-.25,2.97-.05,4.46-.05ZM56.27,187.47c2.9.35,5.55.17,7.16-2.84.48-.9.49-1.21-.56-1.22-2.31-.02-4.62-.05-6.93-.06-1.22,0-4.63,2.61-4.25,3.43.7,1.52,2.36.35,3.56.68.32.09.68.01,1.02.01ZM267.05,183.45c-1.67,0-2.89-.01-4.12,0-.52,0-1.13.21-.6.81,1.23,1.39,2.2,3.19,4.46,3.17,2.04-.02,4.07.02,6.11,0,.38,0,.88.16,1.09-.3.22-.46-.26-.7-.48-1.01-1.71-2.45-4.05-3.25-6.47-2.68ZM211.33,189.95c2.07.43,4.14.48,6.2-.03-2.07-.44-4.14-.49-6.2.03ZM210.62,188.29c-1.42-.45-2.84-.64-4.73.09,1.91.49,3.32.63,4.73-.09ZM207.75,190.03c.75.28,1.25.5,1.86-.22-.69-.29-1.18-.42-1.86.22ZM221.07,190.07c-.26-.24-.37-.44-.5-.45-.24-.01-.59.02-.69.16-.19.28.08.47.35.48.23,0,.45-.1.85-.2Z"/>
  <path class="cls-6" d="M269.34,214.57c-2.31,0-4.62-.02-6.94,0-1.11.01-1.93-.4-1.94-1.58-.01-1.2.66-1.84,1.94-1.84,4.62.02,9.25.02,13.87,0,1.34,0,2.05.6,2.11,1.92.07,1.54-1.11,1.52-2.11,1.54-2.31.05-4.62.02-6.93.02,0-.03,0-.05,0-.08Z"/>
  <path class="cls-6" d="M296.92,214.78c-1.42,0-2.84-.06-4.26.02-1.42.08-1.45-.86-1.52-1.84-.08-1.07.27-1.64,1.47-1.61,2.84.06,5.68.07,8.51.04,1.34-.01,1.49.74,1.52,1.82.03,1.24-.46,1.67-1.67,1.6-1.35-.08-2.7-.02-4.05-.02h0Z"/>
  <path class="cls-6" d="M284.36,210.86c1.18.27,2.62.38,2.55,2.17-.08,1.86-1.57,1.76-2.83,1.79-1.32.03-2.28-.57-2.19-2.04.08-1.45,1.12-1.87,2.47-1.92Z"/>
  <path class="cls-4" d="M29.77,221.98c-.16,0-.32,0-.48,0,.16-.23.32-.24.48,0Z"/>
  <path class="cls-13" d="M321.94,226.25c-.31.28-.63.55-.94.83-.51-.75-1.26-.78-2.08-.81-4.08-.13-8.16.56-12.19.35-9.24-.49-18.47-.27-27.71-.3-5.89-.02-11.79.22-17.66.79-1.66.16-3.21-.45-4.85-.43-3.23.04-6.46.19-9.71.15-12.43-.17-24.85-.75-37.29-.57-10.17.15-20.34.04-30.51,0-.85,0-2.01.49-2.35-.92,11.07-.27,22.14-.03,33.21-.02,36.68.04,73.37.05,110.05.11.69,0,1.87-.7,2.04.81Z"/>
  <path class="cls-15" d="M170.81,81.39c-.4-4.69-2.5-8.09-7.4-8.13-5.22-.05-7.32,3.6-7.94,8.76-1.18-1.62-2.05-2.81-2.93-4-2.6-3.51-7.5-4.51-10.87-1.53-2.45,2.16-2.89,7.18-.35,9.31.78.65,1.38,1.54,2.3,1.97,2.72,1.28,3.55,3.67,4.09,6.38.71,3.6,1.3,7.27,2.48,10.73,1.76,5.15,2.54,10.53,4.09,15.71.53,1.77-.06,2.05-1.64,1.99-2.65-.1-5.31-.12-7.96.02-1.5.08-1.99-.57-2.3-1.89-.63-2.69-1.35-5.37-2.13-8.02-1.46-4.94-4.2-8.98-8.02-12.49-3.32-3.06-5.44-7.09-7.15-11.3-2.23-5.51-3.61-11.21-2.2-17.06,1.67-6.94,3.91-13.8,8.86-19.2,11.23-12.25,25.01-17.15,41.37-13.33,8.77,2.04,15.8,6.91,21.97,13.61,8.24,8.94,13.08,28.26,2.48,43.35-1.26,1.79-2.95,3.16-4.43,4.72-5.09,5.33-8.37,11.49-9,18.89-.19,2.22-1.08,2.87-3.2,2.72-2.44-.17-4.9-.13-7.34.02-1.67.1-2.13-.36-1.73-2.02,1.57-6.46,3-12.95,4.59-19.4.81-3.28,1.88-6.48,2.75-9.74.35-1.31,1.22-2.05,2.27-2.74,2.51-1.63,4.33-3.74,4.52-6.88.16-2.62-.59-4.88-2.98-6.27-2.38-1.38-4.72-.85-6.96.39-1.21.67-2.03,1.78-2.87,2.86-.66.84-1.11,1.87-2.36,2.61ZM130.57,77.7s.02,0,.03,0c0-1.09-.03-2.17,0-3.26.04-1.26-.16-2.41-1.67-2.54-1.49-.13-2.89.45-3.1,2-.34,2.48-.47,5.04.31,7.47.47,1.44,1.77,1.7,3.16,1.53,1.37-.17,1.25-1.2,1.26-2.15,0-1.02,0-2.04,0-3.06ZM133.65,61.34c2.56-.42,3.6-2.47,4.69-4.48.48-.89,1.23-1.82-.02-2.63-1.17-.76-2.43-.94-3.51.2-1.01,1.08-1.97,2.21-2.94,3.33-.59.68-1.17,1.46-.74,2.38.46.99,1.46,1.1,2.51,1.2ZM161.58,44.48c.17-1.49-.52-2.05-2-2.03-1.84.02-3.62.26-5.4.73-1.92.51-1.51,1.82-1.35,3.22.19,1.61,1.02,1.29,2.12,1.08,1.45-.29,2.94-.33,4.42-.49,1.49-.16,2.42-.83,2.2-2.5ZM140.7,50.3c-.02,1.73,1.28,2.82,2.71,2.2,1.78-.77,3.46-1.81,5.14-2.81.99-.59.87-1.64.68-2.58-.16-.81-.78-1.23-1.6-1.35-1.01-.15-6.49,2.95-6.84,3.91-.09.25-.08.53-.09.63Z"/>
  <path class="cls-15" d="M162.56,122.52c-4.23.01-4.28.02-5.2-3.99-2.03-8.81-3.98-17.63-6.01-26.44-.61-2.64-1.92-4.86-4.2-6.45-.83-.58-1.68-1.18-2.39-1.89-1.46-1.46-1.52-3.72-.22-4.94,1.18-1.12,2.68-.94,4.31.65,1.64,1.6,3.17,3.3,4.54,5.17,1.58,2.14,3.45,4,6.09,4.9,4.96,1.69,8.91-.28,12.38-3.54,1.52-1.43,2.67-3.25,4-4.88.59-.73,1.21-1.4,2.08-1.88,1.4-.78,2.73-1.08,3.88.21,1.17,1.33.84,2.77-.13,4.11-.86,1.18-2,2.12-3.3,2.66-1.66.69-2.33,1.98-2.78,3.51-2.15,7.38-3.64,14.92-5.48,22.37-.77,3.14-1.66,6.26-2.44,9.4-.21.85-.7,1.07-1.46,1.06-1.22-.02-2.45,0-3.67,0Z"/>
  <path class="cls-5" d="M165.59,131.39c-7.27.03-14.55.04-21.82.1-1.36.01-1.75-.61-1.82-1.84-.18-3.13.47-3.88,3.53-3.88,7.82,0,15.64.02,23.46.03-.96,1.96-2.78,3.39-3.34,5.59Z"/>
  <path class="cls-3" d="M160.74,135.22c7.05-.01,14.1-.03,21.15-.03.79,0,1.73-.19,2.03.88.29,1.06.09,2.02-.85,2.72-.97.72-2.08.9-3.26.93-5.14.12-10.29-.19-15.43.29-1.99.19-4.04-.2-6.07-.32.42-1.7,2.16-2.69,2.43-4.48Z"/>
  <path class="cls-3" d="M165.59,131.39c.56-2.2,2.38-3.63,3.34-5.59,4.49,0,8.98.02,13.47-.03,1.22-.01,1.89.44,1.65,1.65-.26,1.28,1.03,3.52-1.36,3.61-5.69.21-11.39.92-17.1.35Z"/>
  <path class="cls-5" d="M160.74,135.22c-.27,1.79-2.01,2.78-2.43,4.48-1.57.66-3.21.29-4.82.33-2.57.05-5.14.07-7.71-.05-.92-.04-2.04.16-2.66-1-1.54-2.85-1.01-3.8,2.2-3.8,5.14,0,10.28.03,15.43.04Z"/>
  <path class="cls-3" d="M160.72,143.83c4.95-.02,9.9-.02,14.85-.09,1.51-.02,1.44.72.85,1.6-1.35,2.04-3.26,3.27-5.75,3.3-3.46.04-6.91-.04-10.37-.07.44-1.56.52-3.14.42-4.75Z"/>
  <path class="cls-15" d="M166.62,81.54c0,2.79-1.24,4.29-3.51,4.25-1.99-.04-3.84-2.14-3.9-4.44-.05-2.05,2.17-4.66,3.99-4.7,2.1-.04,3.41,1.83,3.42,4.89Z"/>
  <path class="cls-5" d="M160.72,143.83c.1,1.6.02,3.19-.42,4.75-3.45.19-6.88.29-9.82-2.02-.31-.25-.66-.5-.87-.83-.31-.5-.77-1.07-.49-1.67.27-.59.96-.35,1.47-.35,3.38.02,6.76.07,10.14.12Z"/>
  <path class="cls-3" d="M156.64,152.46c3.85,0,7.21-.07,10.58.06.63.02,1.89-.16,1.92.98.03,1.01-1.09.79-1.73,1.06-3.27,1.37-6.36.48-9.4-.82-.4-.17-.68-.62-1.37-1.28Z"/>
  <path class="cls-2" d="M173.81,196.82c-2.44,0-4.88-.05-7.32.02-1.45.04-2.04-.43-2.03-1.99.03-4.04-.03-4.05,3.95-4.06,4,0,8,.05,12-.03,1.47-.03,2.15.61,2.31,1.94.5,4.05,1.97,4.19-3.42,4.13-1.83-.02-3.66,0-5.49,0h0Z"/>
  <path class="cls-2" d="M130.46,190.82c2.37,0,4.75.04,7.12-.02,1.26-.03,1.74.48,1.55,1.7-.7,4.34-.52,4.18-4.31,4.24-4.2.07-8.41.05-12.61,0-2.28-.02-2.5-.41-1.71-2.49q1.3-3.45,5.08-3.45c1.63,0,3.25,0,4.88,0h0Z"/>
  <path class="cls-2" d="M151.4,196.83c-2.45,0-4.9-.03-7.34.01-1.17.02-1.73-.19-1.48-1.62.76-4.37.7-4.39,5.13-4.41,3.67-.02,7.34.02,11.01-.02,1.53-.02,2.15.56,2.13,2.18-.05,3.86.03,3.86-3.74,3.86-1.9,0-3.81,0-5.71,0Z"/>
  <path class="cls-2" d="M196.89,196.8c-2.44,0-4.88-.05-7.32.02-1.34.04-2.01-.54-2.24-1.8-.14-.8-.12-1.73-.54-2.36-1.35-2.05.12-1.89,1.38-1.89,4.47-.02,8.94.03,13.42-.03,1.13-.01,1.79.45,2.23,1.39.17.37.25.78.44,1.13.57,1.04,2.11,2.12,1.51,3.07-.71,1.13-2.49.38-3.79.46-1.69.09-3.39.02-5.08.02Z"/>
  <path class="cls-10" d="M207.51,190.75c5.47,0,10.61,0,15.75.02.41,0,.86,0,1.15.58.68,1.39,1.47,2.75,2.32,4.05.75,1.14.33,1.36-.79,1.36-4.75-.03-9.51-.02-14.26-.03-.69,0-1.36-.02-1.72-.79-.76-1.65-1.54-3.28-2.44-5.19Z"/>
  <path class="cls-2" d="M239.22,196.78c-2.18,0-4.35-.05-6.53.02-1.1.04-1.75-.33-2.22-1.34-.54-1.16-1.31-2.21-1.87-3.36-.4-.82-.24-1.36.91-1.35,4.35.04,8.7.03,13.05-.01.86,0,1.39.38,1.88.99.9,1.11,1.82,2.19,2.74,3.28.3.36.78.72.59,1.22-.23.6-.91.52-1.42.53-2.38.03-4.76.01-7.14.01Z"/>
  <path class="cls-2" d="M86.01,196.49c-2.44,0-4.88,0-7.33,0-.39,0-.88.07-1.01-.44-.09-.36.22-.59.49-.81.26-.21.57-.43.7-.71,1.66-3.6,4.61-4.16,8.2-3.85,3.03.26,6.1.1,9.15.04,1.53-.03,1.63.58.91,1.65-.86,1.28-1.76,2.54-2.68,3.77-.37.49-.99.36-1.52.36-2.31.01-4.61,0-6.92,0Z"/>
  <path class="cls-10" d="M98.94,196.53c1.09-1.91,1.97-3.43,2.82-4.96.38-.69.94-.88,1.68-.87,4.35.03,8.7.05,13.05.02,1.14,0,1.37.31,1.02,1.43-1.39,4.38-1.36,4.39-5.96,4.38-4.07,0-8.14,0-12.61,0Z"/>
  <path class="cls-2" d="M269.02,196.52c-5.06,0-10.13,0-15.19,0-.69,0-1.1-.4-1.5-.9-.63-.8-1.27-1.58-1.95-2.34-.6-.68-1.93-1.15-1.53-2.12.31-.76,1.6-.33,2.44-.34,3.39-.04,6.79.06,10.17-.04,1.7-.05,2.98.44,4.1,1.73,1.09,1.26,2.12,2.61,3.68,3.41-.08.2-.16.4-.23.61Z"/>
  <path class="cls-2" d="M69.43,190.73c1.96,0,3.93,0,5.89,0,1.24,0,1.37.41.71,1.42-1.81,2.74-3.68,5.02-7.58,4.47-3.4-.48-6.88.53-10.32-.09-.37-.07-.88.15-1.06-.34-.17-.45.25-.71.51-1.01,2.43-2.82,5.03-5.24,9.23-4.47.85.16,1.76.02,2.64.02,0,0,0,0,0,.01Z"/>
  <path class="cls-1" d="M133.2,183.37c1.97,0,3.93,0,5.9,0,.81,0,1.75-.11,1.66,1.17-.09,1.18.1,2.79-1.56,2.84-4.4.13-8.81.04-13.21-.03-.65-.01-1.73-.05-1.43-1.2.31-1.18.35-2.73,2.14-2.77,2.17-.05,4.34-.01,6.51-.01Z"/>
  <path class="cls-1" d="M102.43,183.33c-1.12,3.77-1.52,4.08-5.35,4.08-3.31,0-6.63-.06-9.94.03-1.62.05-2.13-.42-1.37-1.93,1.23-1.8,2.91-2.3,5.07-2.21,3.86.16,7.72.03,11.59.02Z"/>
  <path class="cls-1" d="M172.67,183.39c2.04,0,4.08.07,6.12-.02,2.15-.1,1.93,1.6,2.11,2.8.24,1.58-1.15.94-1.85.99-4.2.28-8.4.45-12.61.09-1.56-.13-1.68-.87-1.69-2.11-.01-1.33.49-1.81,1.81-1.76,2.04.07,4.08.02,6.12.02,0,0,0-.01,0-.02Z"/>
  <path class="cls-10" d="M42.46,196.7c1.63-2.37,3.36-3.89,4.91-5.57.25-.27.7-.45,1.08-.47,2.81-.16,5.62-.09,8.43.11.2.26.39.51.59.77-1.8,1.53-3.61,3.06-5.4,4.61-.37.32-.76.55-1.26.55-2.62,0-5.24,0-8.35,0Z"/>
  <path class="cls-1" d="M152.94,183.41c2.1,0,4.2.03,6.3,0,1.46-.03,1.59.87,1.6,2.01.01,1.11-.25,1.74-1.56,1.81-4.13.22-8.25.31-12.38.2-.89-.02-2.19.15-2.02-1.29.14-1.23.06-2.85,2.16-2.75,1.96.1,3.93.02,5.89.02,0,0,0,0,0,.01Z"/>
  <path class="cls-1" d="M75.61,183.41c2.03,0,4.06.04,6.09-.01,1.29-.03,1.33.44.83,1.44-.75,1.5-1.65,2.3-3.55,2.38-3.79.17-7.58.14-11.36.16-1.45,0-1.94-.81-1.11-2,.79-1.13,1.65-2.21,3.42-2.02,1.87.2,3.79.05,5.68.05Z"/>
  <path class="cls-10" d="M268.83,191.06c3.03-.61,5.7.04,8.29-.55.25-.06.66.18.88.41,1.67,1.76,3.31,3.55,5.35,5.75-3.31,0-6.05.01-8.79,0-.68,0-1.06-.55-1.48-.99-1.33-1.44-2.65-2.88-4.25-4.61Z"/>
  <path class="cls-1" d="M193.21,187.16c-2.17,0-4.33-.06-6.5.02-2.12.07-1.95-1.63-2.1-2.82-.2-1.5,1.18-.96,1.9-.97,3.86-.05,7.71-.03,11.57,0,1.45.01,2.87,1.67,2.8,3.06-.05.92-.72.66-1.18.67-2.16.04-4.33.02-6.5.02,0,0,0,.01,0,.02Z"/>
  <path class="cls-1" d="M105.4,187.02c.69-3.36,2.95-3.96,5.92-3.72,2.43.2,4.89.01,7.33.09.75.02,2.14-.54,2.01.87-.11,1.22-.19,3.03-2.01,3.1-3.32.13-6.65.02-9.98-.05-1.13-.02-2.25-.2-3.28-.3Z"/>
  <path class="cls-1" d="M259.93,186.86c-2.27.91-4.33.52-6.35.53-2.38.02-4.75-.13-7.13-.21-1.3-.04-3.42-1.81-3.7-3.04-.19-.83.4-.72.84-.72,3.94-.01,7.9-.15,11.83.06,1.93.1,2.91,2.01,4.51,3.38Z"/>
  <path class="cls-1" d="M219.54,187.23c-3.87-.04-7.74-.08-11.6-.11-1.29-.01-3.43-1.71-3.69-2.88-.16-.74.32-.8.81-.8,4.41,0,8.84-.15,13.23.13,1.73.11,1.83,2.27,2.5,3.61-.42.02-.84.04-1.25.06Z"/>
  <path class="cls-1" d="M232.5,187.17c-1.49,0-3.02-.2-4.46.05-2.38.41-3.24-1.03-4.04-2.78-.34-.75-.13-1.01.61-1.01,4.06,0,8.13-.06,12.19.04,1.81.04,2.22,1.84,2.92,3.05.37.64-.66.61-1.12.62-2.03.04-4.06.02-6.1.02v.02Z"/>
  <path class="cls-1" d="M56.27,187.47c-.34,0-.7.07-1.02-.01-1.2-.32-2.86.84-3.56-.68-.38-.81,3.03-3.43,4.25-3.43,2.31,0,4.62.03,6.93.06,1.05.01,1.04.32.56,1.22-1.62,3.02-4.27,3.19-7.16,2.84Z"/>
  <path class="cls-1" d="M267.05,183.45c2.42-.58,4.76.23,6.47,2.68.22.32.7.55.48,1.01-.21.45-.71.29-1.09.3-2.04.01-4.07-.02-6.11,0-2.26.02-3.23-1.78-4.46-3.17-.53-.6.08-.8.6-.81,1.22-.02,2.44,0,4.12,0Z"/>
  <path class="cls-7" d="M102.43,183.33c-3.86,0-7.73.14-11.59-.02-2.16-.09-3.84.41-5.07,2.21-.17-3.23.51-3.77,3.27-2.77,1.29.47,2.69.47,3.98-.01,3.04-1.13,6.17-.39,9.25-.51,1.31-.05.5.67.17,1.11Z"/>
  <path class="cls-7" d="M211.33,189.95c2.06-.52,4.13-.47,6.2-.03-2.06.51-4.13.47-6.2.03Z"/>
  <path class="cls-7" d="M210.62,188.29c-1.41.72-2.82.58-4.73.09,1.89-.73,3.31-.54,4.73-.09Z"/>
  <path class="cls-7" d="M219.54,187.23c.42-.02.84-.04,1.25-.06.3.59.41,1.25-.4,1.39-1.09.19-.78-.75-.86-1.34Z"/>
  <path class="cls-7" d="M207.75,190.03c.68-.64,1.17-.51,1.86-.22-.61.72-1.11.5-1.86.22Z"/>
  <path class="cls-7" d="M221.07,190.07c-.39.1-.62.21-.85.2-.27,0-.54-.2-.35-.48.1-.15.45-.18.69-.16.13,0,.25.21.5.45Z"/>
  <path class="cls-14" d="M130.57,77.7c0,1.02,0,2.04,0,3.06,0,.95.11,1.98-1.26,2.15-1.39.17-2.7-.09-3.16-1.53-.79-2.43-.65-4.99-.31-7.47.21-1.55,1.62-2.13,3.1-2,1.51.13,1.71,1.28,1.67,2.54-.04,1.09,0,2.17,0,3.26,0,0-.02,0-.03,0Z"/>
  <path class="cls-14" d="M133.65,61.34c-1.05-.09-2.06-.21-2.51-1.2-.43-.92.15-1.7.74-2.38.96-1.12,1.92-2.25,2.94-3.33,1.08-1.14,2.33-.96,3.51-.2,1.25.81.5,1.74.02,2.63-1.09,2.01-2.14,4.06-4.69,4.48Z"/>
  <path class="cls-14" d="M161.58,44.48c.21,1.67-.72,2.34-2.2,2.5-1.47.16-2.97.2-4.42.49-1.1.22-1.93.53-2.12-1.08-.17-1.4-.57-2.71,1.35-3.22,1.78-.47,3.56-.71,5.4-.73,1.48-.02,2.17.54,2,2.03Z"/>
  <path class="cls-14" d="M140.7,50.3c.01-.1,0-.38.09-.63.35-.96,5.83-4.06,6.84-3.91.82.12,1.43.54,1.6,1.35.19.94.31,1.98-.68,2.58-1.68,1-3.35,2.04-5.14,2.81-1.43.62-2.73-.47-2.71-2.2Z"/>
</svg>